<svg width="45" height="47" viewBox="0 0 45 47" fill="none" xmlns="http://www.w3.org/2000/svg">
<path d="M18.3594 7.76562V8.59375H26.6406V7.76562C26.6406 6.66746 26.2044 5.61428 25.4279 4.83776C24.6513 4.06124 23.5982 3.625 22.5 3.625C21.4018 3.625 20.3487 4.06124 19.5721 4.83776C18.7956 5.61428 18.3594 6.66746 18.3594 7.76562ZM15.0469 8.59375V7.76562C15.0469 5.78893 15.8321 3.8932 17.2298 2.49547C18.6276 1.09774 20.5233 0.3125 22.5 0.3125C24.4767 0.3125 26.3724 1.09774 27.7702 2.49547C29.1679 3.8932 29.9531 5.78893 29.9531 7.76562V8.59375H42.375C42.8143 8.59375 43.2355 8.76825 43.5461 9.07885C43.8568 9.38946 44.0312 9.81073 44.0312 10.25C44.0312 10.6893 43.8568 11.1105 43.5461 11.4211C43.2355 11.7318 42.8143 11.9062 42.375 11.9062H39.8774L36.7438 39.347C36.5127 41.3679 35.5459 43.2331 34.0277 44.5869C32.5096 45.9408 30.5463 46.6885 28.5122 46.6875H16.4878C14.4537 46.6885 12.4904 45.9408 10.9723 44.5869C9.45411 43.2331 8.48732 41.3679 8.25625 39.347L5.12262 11.9062H2.625C2.18574 11.9062 1.76446 11.7318 1.45385 11.4211C1.14325 11.1105 0.96875 10.6893 0.96875 10.25C0.96875 9.81073 1.14325 9.38946 1.45385 9.07885C1.76446 8.76825 2.18574 8.59375 2.625 8.59375H15.0469ZM19.1875 19.3594C19.1875 18.9201 19.013 18.4988 18.7024 18.1882C18.3918 17.8776 17.9705 17.7031 17.5312 17.7031C17.092 17.7031 16.6707 17.8776 16.3601 18.1882C16.0495 18.4988 15.875 18.9201 15.875 19.3594V35.9219C15.875 36.3611 16.0495 36.7824 16.3601 37.093C16.6707 37.4036 17.092 37.5781 17.5312 37.5781C17.9705 37.5781 18.3918 37.4036 18.7024 37.093C19.013 36.7824 19.1875 36.3611 19.1875 35.9219V19.3594ZM27.4688 17.7031C27.0295 17.7031 26.6082 17.8776 26.2976 18.1882C25.987 18.4988 25.8125 18.9201 25.8125 19.3594V35.9219C25.8125 36.3611 25.987 36.7824 26.2976 37.093C26.6082 37.4036 27.0295 37.5781 27.4688 37.5781C27.908 37.5781 28.3293 37.4036 28.6399 37.093C28.9505 36.7824 29.125 36.3611 29.125 35.9219V19.3594C29.125 18.9201 28.9505 18.4988 28.6399 18.1882C28.3293 17.8776 27.908 17.7031 27.4688 17.7031Z" fill="#666666"/>
</svg>
