<svg width="49" height="45" viewBox="0 0 49 45" fill="none" xmlns="http://www.w3.org/2000/svg">
<path d="M11.0417 20.292H28.7083V24.7087H11.0417V31.3337L0 22.5003L11.0417 13.667V20.292ZM8.83333 35.7503H14.8135C17.3634 37.9992 20.5081 39.4644 23.8702 39.9703C27.2322 40.4762 30.6688 40.0012 33.7676 38.6024C36.8664 37.2035 39.4958 34.9403 41.3401 32.0841C43.1845 29.2279 44.1656 25.9002 44.1656 22.5003C44.1656 19.1004 43.1845 15.7727 41.3401 12.9166C39.4958 10.0604 36.8664 7.79711 33.7676 6.39826C30.6688 4.99941 27.2322 4.52444 23.8702 5.03033C20.5081 5.53623 17.3634 7.00151 14.8135 9.25033H8.83333C10.8885 6.50576 13.5555 4.27829 16.6223 2.74489C19.6891 1.2115 23.0712 0.414422 26.5 0.416998C38.6966 0.416998 48.5833 10.3037 48.5833 22.5003C48.5833 34.697 38.6966 44.5837 26.5 44.5837C23.0712 44.5862 19.6891 43.7892 16.6223 42.2558C13.5555 40.7224 10.8885 38.4949 8.83333 35.7503Z" fill="#666666"/>
</svg>
