<svg width="17" height="19" viewBox="0 0 17 19" fill="none" xmlns="http://www.w3.org/2000/svg">
<g id="OBJECTS" clip-path="url(#clip0_21_1140)">
<path id="Vector" d="M15.4134 17.5127C15.4166 17.4922 15.4206 17.4773 15.421 17.4623C15.4221 17.4279 15.4217 17.3936 15.4217 17.3592C15.4217 14.7469 15.4216 12.1347 15.4221 9.52241C15.4221 9.46635 15.4236 9.40968 15.4317 9.35437C15.4689 9.10123 15.6813 8.9087 15.9263 8.89533C16.1944 8.88074 16.42 9.06834 16.4752 9.31008C16.4855 9.35531 16.4876 9.40259 16.4922 9.44904C16.494 9.46762 16.4926 9.48652 16.4926 9.50524C16.4926 12.3393 16.4927 15.1734 16.492 18.0075C16.492 18.0665 16.4888 18.1266 16.4776 18.1842C16.4282 18.4369 16.2023 18.6104 15.9765 18.6117C15.9429 18.6119 15.9094 18.6123 15.8759 18.6123C10.9517 18.6123 6.02753 18.6123 1.10337 18.6121C1.03351 18.6121 0.963746 18.6145 0.894483 18.5965C0.646985 18.5321 0.492585 18.3002 0.493408 18.0774C0.493545 18.0462 0.493225 18.0149 0.493225 17.9837C0.493225 15.1683 0.493225 12.353 0.493225 9.53761C0.493225 9.50013 0.493408 9.4626 0.493591 9.42511C0.494598 9.19369 0.665742 8.9345 0.962785 8.89885C1.25676 8.86352 1.49035 9.06304 1.54832 9.32251C1.55641 9.35873 1.55779 9.39678 1.55953 9.43412C1.5614 9.47465 1.56017 9.51533 1.56017 9.55595C1.56017 12.1619 1.56017 14.7679 1.56049 17.3739C1.56049 17.4171 1.55445 17.461 1.56872 17.5092C1.58537 17.5122 1.6023 17.5169 1.6195 17.518C1.64379 17.5195 1.66822 17.5185 1.69261 17.5185C6.2237 17.5185 10.7548 17.5185 15.2859 17.5184C15.3278 17.5184 15.3703 17.5218 15.4135 17.5127H15.4134Z" fill="#A7A2A2"/>
<path id="Vector_2" d="M7.95699 2.40998C7.93178 2.42852 7.92167 2.43438 7.91344 2.44231C7.89349 2.46159 7.87437 2.48176 7.85497 2.50165C6.91553 3.465 5.97614 4.42835 5.03669 5.39171C5.01085 5.41821 4.98559 5.44542 4.95888 5.47099C4.65593 5.76128 4.16446 5.61266 4.06944 5.19899C4.02616 5.01059 4.06775 4.83931 4.20174 4.69698C4.21652 4.68126 4.23249 4.66667 4.24818 4.65185C5.64954 3.32473 7.05099 1.99786 8.45157 0.669902C8.49234 0.631292 8.53214 0.605725 8.58891 0.613794C8.60986 0.616796 8.63187 0.612058 8.65273 0.615389C8.66984 0.61811 8.68686 0.625898 8.70218 0.634576C8.71243 0.640394 8.71948 0.651934 8.72821 0.66066C9.31745 1.24941 9.90564 1.83929 10.4963 2.42655C11.1811 3.10734 11.8681 3.78565 12.554 4.46532C12.6306 4.54132 12.7085 4.61638 12.7806 4.69679C12.9249 4.85756 12.9664 5.04591 12.8986 5.25303C12.7789 5.619 12.3307 5.74181 12.0457 5.48933C12.0181 5.46484 11.9927 5.43768 11.9669 5.41117C11.0188 4.43905 10.0707 3.46683 9.12256 2.4948C9.09763 2.46924 9.07494 2.44034 9.03733 2.4173C9.03322 2.43687 9.0291 2.44798 9.02883 2.45915C9.02786 2.49663 9.02819 2.53412 9.02819 2.57165C9.02819 6.43068 9.02819 10.2897 9.02777 14.1487C9.02777 14.2079 9.02672 14.2678 9.01789 14.3261C8.97882 14.5839 8.76431 14.7751 8.5137 14.785C8.25033 14.7953 8.02332 14.6062 7.97241 14.3601C7.96362 14.3176 7.96051 14.2737 7.95754 14.2303C7.95521 14.1961 7.95699 14.1616 7.95699 14.1272C7.95699 10.2713 7.95699 6.41539 7.95699 2.5595V2.41013V2.40998Z" fill="#A7A2A2"/>
</g>
<defs>
<clipPath id="clip0_21_1140">
<rect width="16" height="18" fill="white" transform="translate(0.493164 0.612305)"/>
</clipPath>
</defs>
</svg>
