<svg width="117" height="87" viewBox="0 0 117 87" fill="none" xmlns="http://www.w3.org/2000/svg">
<g id="Group 1261152835">
<path id="Vector" d="M0.0303955 83.253C0.0522235 83.1983 0.082055 83.1451 0.0951518 83.089C0.309066 82.1867 0.83803 81.5519 1.69514 81.1955C6.33868 79.2656 10.9145 77.1863 15.4155 74.943C20.3944 72.4614 25.273 69.7954 30.0504 66.9436C36.0087 63.387 41.8157 59.5957 47.3804 55.4495C51.0547 52.712 54.6542 49.8711 58.234 47.0098C60.459 45.2315 62.6097 43.3584 64.7503 41.4774C70.8585 36.1089 76.688 30.4482 82.2505 24.5157C84.5738 22.0385 86.8337 19.5015 89.122 16.9914C89.1773 16.9309 89.2268 16.8661 89.3432 16.7269C88.7487 16.8734 88.2474 16.9951 87.7468 17.1197C85.2315 17.7443 82.7206 18.3871 80.2002 18.9876C78.8432 19.3112 77.4986 18.449 77.1537 17.1029C76.8037 15.7349 77.5692 14.3261 78.9356 13.9596C80.9227 13.4261 82.925 12.9487 84.9216 12.4502C88.5988 11.5311 92.2754 10.6114 95.9534 9.69891C97.1387 9.40447 98.273 9.84905 98.866 10.8155C99.491 11.8351 99.3921 13.0063 98.5968 13.9574C92.1568 21.6602 85.3821 29.0547 78.2116 36.0827C72.751 41.4351 67.0728 46.5441 61.1618 51.3921C53.4354 57.7285 45.354 63.5706 36.8869 68.8757C29.5265 73.4869 21.9384 77.6826 14.0789 81.3748C10.6817 82.9709 7.22562 84.4409 3.79427 85.9641C3.54324 86.0757 3.27549 86.15 3.01573 86.2411H2.28814C1.58819 86.0538 0.92898 85.7776 0.535349 85.1318C0.31998 84.7776 0.197016 84.3673 0.0325783 83.9818C0.0325783 83.7391 0.0325783 83.4957 0.0325783 83.253H0.0303955Z" fill="#842029"/>
<path id="Vector_2" d="M39.1752 0.241211C39.9094 0.310448 40.6435 0.37677 41.3769 0.448923C45.2172 0.827906 48.9047 1.8016 52.4372 3.34741C58.5556 6.0258 63.6095 10.0569 67.5989 15.4217C69.3364 17.7582 70.7654 20.2748 71.9179 22.9489C72.4716 24.2338 72.1042 25.5799 71.012 26.2956C69.9578 26.9865 68.5448 26.8407 67.6993 25.8874C67.3864 25.5347 67.1732 25.077 66.9753 24.6397C64.2599 18.6175 60.1264 13.8299 54.5334 10.3273C50.3053 7.67948 45.696 6.11035 40.7294 5.62277C34.48 5.00984 28.5334 6.09213 22.9359 8.94543C17.4106 11.7616 13.0457 15.8517 9.83843 21.1698C7.51957 25.015 6.04982 29.1693 5.51504 33.6267C4.52914 41.8419 6.33213 49.3946 11.0331 56.225C12.158 57.859 13.4502 59.3524 14.8501 60.7553C15.673 61.5803 15.8826 62.6794 15.4344 63.7041C15.0073 64.68 14.0192 65.2951 12.9307 65.2448C12.2344 65.2128 11.6472 64.9227 11.1561 64.4322C7.18342 60.4638 4.19081 55.8635 2.27286 50.5745C0.990099 47.0361 0.263955 43.3841 0.0900586 39.6226C0.0827826 39.4681 0.0507683 39.3144 0.0303955 39.1599C0.0303955 38.2364 0.0303955 37.3138 0.0303955 36.3904C0.0500407 36.2475 0.0725963 36.1047 0.0878758 35.9611C0.235578 34.5501 0.325073 33.1297 0.540442 31.7289C1.2695 26.9821 2.90587 22.5531 5.39207 18.4535C9.41861 11.8155 14.9593 6.85592 22.0075 3.60469C25.6899 1.90582 29.5549 0.858516 33.5902 0.449652C34.336 0.373855 35.0825 0.310448 35.8283 0.241211C36.9437 0.241211 38.0598 0.241211 39.1752 0.241211Z" fill="#842029"/>
<path id="Vector_3" d="M113.463 86.2411C113.043 86.04 112.583 85.8935 112.212 85.6246C111.616 85.1931 111.313 84.5583 111.267 83.8142C111.256 83.6203 111.256 83.4257 111.256 83.2319C111.256 59.3734 111.256 35.515 111.25 11.6565C111.25 10.7732 111.459 9.99994 112.141 9.4045C113.578 8.14875 115.81 8.80906 116.361 10.6493C116.384 10.728 116.417 10.8046 116.446 10.8818V84.1276C116.243 84.6807 116.051 85.2623 115.535 85.5954C115.12 85.8629 114.641 86.0298 114.191 86.2411H113.463Z" fill="#842029"/>
<path id="Vector_4" d="M97.8925 86.2413C97.8838 86.2333 97.8765 86.2202 97.8656 86.2173C96.2008 85.6568 95.6857 84.9331 95.6857 83.1577C95.6872 70.9165 95.6893 58.6761 95.6908 46.435C95.6908 39.8778 95.6872 33.32 95.6908 26.7628C95.6908 25.6062 96.4133 24.6311 97.4872 24.2892C99.1898 23.747 100.873 24.9896 100.878 26.8182C100.888 30.8989 100.881 34.9787 100.881 39.0594C100.881 53.8018 100.881 68.5443 100.881 83.2867C100.881 84.9185 100.298 85.7122 98.746 86.1947C98.7256 86.2012 98.7111 86.2253 98.6936 86.2413H97.8932H97.8925Z" fill="#842029"/>
<path id="Vector_5" d="M82.3219 86.2411C81.6139 86.0597 80.9831 85.7609 80.5502 85.1326C80.238 84.6786 80.0678 84.1822 80.0685 83.6327C80.0743 72.2173 80.0816 60.8019 80.0903 49.3865C80.0925 46.8488 80.094 44.3103 80.11 41.7726C80.1187 40.347 81.0304 39.3092 82.4063 39.1182C83.879 38.9142 85.2956 40.108 85.2978 41.6013C85.3065 47.442 85.2985 53.2835 85.2963 59.1242C85.2949 63.7507 85.2934 68.3779 85.2898 73.0052C85.2869 76.4539 85.2818 79.9027 85.2774 83.3514C85.2752 84.903 84.6051 85.7791 83.1041 86.1974C83.083 86.2033 83.0669 86.2266 83.0488 86.2411H82.3212H82.3219Z" fill="#842029"/>
<path id="Vector_6" d="M66.7512 86.2411C66.0818 86.0684 65.4706 85.7965 65.0392 85.2237C64.6521 84.7106 64.4927 84.1305 64.4927 83.4884C64.4971 73.6501 64.4964 63.8119 64.4935 53.9743C64.4935 53.4132 64.6113 52.8957 64.9242 52.422C65.5259 51.5109 66.6406 51.0533 67.676 51.3047C68.7878 51.5744 69.5626 52.4526 69.6769 53.5793C69.6965 53.7717 69.6994 53.967 69.6994 54.1609C69.7002 63.8775 69.7002 73.594 69.7002 83.3113C69.7002 84.9154 69.0701 85.7557 67.5356 86.1974C67.5145 86.2032 67.4977 86.2265 67.4788 86.2411H66.7512Z" fill="#842029"/>
<path id="Vector_7" d="M51.1807 86.2412C50.7455 86.0415 50.2668 85.903 49.8863 85.6282C49.2183 85.145 48.9244 84.4271 48.9236 83.6036C48.9207 79.4399 48.9222 75.2762 48.9222 71.1124C48.9222 69.9595 48.9164 68.8058 48.9229 67.6528C48.9309 66.2957 49.9117 65.1908 51.2294 65.0414C52.5173 64.8949 53.7134 65.7214 54.0387 67.0034C54.1034 67.2577 54.1158 67.5318 54.1158 67.7963C54.1202 73.0161 54.1209 78.2359 54.1194 83.4556C54.1194 84.9038 53.4013 85.8199 51.997 86.185C51.9643 86.1938 51.9374 86.2222 51.9075 86.2412H51.1799H51.1807Z" fill="#842029"/>
<path id="Vector_8" d="M35.5372 86.2413C35.2811 86.1444 35.0119 86.073 34.7725 85.9454C33.8768 85.468 33.3733 84.7115 33.3573 83.6941C33.3311 82.0689 33.3355 80.4436 33.3552 78.8183C33.3719 77.403 34.5113 76.2806 35.9047 76.2646C37.3242 76.2485 38.4964 77.309 38.5313 78.7287C38.572 80.4137 38.5633 82.1002 38.5335 83.7859C38.5138 84.8981 37.7193 85.8368 36.6374 86.1378C36.5355 86.1662 36.438 86.2071 36.3383 86.2413H35.538H35.5372Z" fill="#842029"/>
<path id="Vector_9" d="M38.6565 14.9231C38.6565 15.3968 38.6739 15.8713 38.6499 16.3436C38.6361 16.6198 38.7285 16.7342 38.9904 16.8326C42.002 17.9703 43.957 20.0962 44.7865 23.2112C44.9808 23.9407 45.0521 24.7198 45.0637 25.4778C45.0855 26.8953 43.9447 28.0221 42.5418 28.0621C41.1478 28.1015 39.9538 27.0265 39.8978 25.6039C39.8366 24.0537 39.2487 22.8147 37.8874 22.0392C36.5442 21.2747 35.156 21.298 33.8514 22.1267C32.5512 22.9532 31.9349 24.1805 32.0317 25.7372C32.0732 26.407 32.4348 26.9252 32.9645 27.2707C33.906 27.885 34.8766 28.4601 35.8603 29.006C37.5025 29.9162 39.1818 30.7595 40.8138 31.6873C42.1111 32.4248 43.2476 33.3701 44.0502 34.6623C45.0848 36.3262 45.3045 38.1584 44.9684 40.0322C44.3659 43.3913 42.4378 45.7359 39.3026 47.0805C39.0428 47.192 38.6892 47.2423 38.5553 47.4398C38.4251 47.633 38.5197 47.9792 38.5182 48.259C38.5146 48.9026 38.5182 49.5468 38.5095 50.1904C38.4884 51.6626 37.3686 52.801 35.9403 52.8076C34.4568 52.8148 33.3181 51.6932 33.3006 50.1897C33.2904 49.3515 33.2992 48.5134 33.3166 47.676C33.3217 47.4209 33.2475 47.3021 32.9936 47.2073C29.5498 45.921 27.5257 43.4379 26.9036 39.8252C26.758 38.982 26.6846 38.1125 27.14 37.2999C27.6741 36.3466 28.7946 35.7861 29.8387 35.9822C30.9978 36.2001 31.8454 37.0703 31.9888 38.1999C32.036 38.5724 32.036 38.9528 32.1059 39.3209C32.4617 41.2034 34.1403 42.54 36.072 42.4963C37.9463 42.4548 39.5361 41.0256 39.8432 39.1656C40.0331 38.0163 39.7093 37.1155 38.7016 36.5237C37.5534 35.8495 36.3805 35.2169 35.2178 34.5675C33.6426 33.6879 32.0331 32.8628 30.4994 31.9154C29.05 31.0197 27.8844 29.804 27.2936 28.1627C26.3557 25.5558 26.7486 23.0618 28.1332 20.7186C29.2894 18.7618 30.9963 17.4513 33.1515 16.7393C33.3828 16.6628 33.4505 16.5644 33.449 16.3348C33.4432 15.3997 33.4309 14.4632 33.4651 13.5296C33.5269 11.8089 35.017 10.6413 36.6432 11.0123C37.7972 11.2754 38.6274 12.2775 38.6616 13.4662C38.6761 13.9516 38.6637 14.4377 38.6637 14.9238C38.6616 14.9238 38.6587 14.9238 38.6565 14.9238V14.9231Z" fill="#842029"/>
</g>
</svg>
