<svg width="12" height="12" viewBox="0 0 12 12" fill="none" xmlns="http://www.w3.org/2000/svg">
<g id="ep:arrow-up-bold">
<path id="Vector" d="M10.7639 2.72716C10.6233 2.58656 10.4326 2.50757 10.2337 2.50757C10.0348 2.50757 9.84409 2.58656 9.70345 2.72716L5.99095 6.43966L2.27845 2.72716C2.137 2.59054 1.94754 2.51494 1.7509 2.51665C1.55425 2.51836 1.36614 2.59724 1.22708 2.73629C1.08803 2.87535 1.00915 3.06346 1.00744 3.26011C1.00573 3.45676 1.08133 3.64621 1.21795 3.78766L5.4607 8.03041C5.60134 8.17101 5.79207 8.25 5.99095 8.25C6.18982 8.25 6.38055 8.17101 6.5212 8.03041L10.7639 3.78766C10.9045 3.64701 10.9835 3.45628 10.9835 3.25741C10.9835 3.05854 10.9045 2.86781 10.7639 2.72716Z" fill="#666666"/>
</g>
</svg>
