<svg width="1440" height="907" viewBox="0 0 1440 907" fill="none" xmlns="http://www.w3.org/2000/svg">
<path d="M0 904.551H1440" stroke="black" stroke-width="4.04" stroke-miterlimit="10"/>
<path d="M276.242 89.5745C276.638 96.7513 269.187 103.254 262.132 101.886C253.927 100.28 249.944 91.101 243.583 85.6887C240.749 83.27 236.944 81.5056 233.337 82.4572C231.653 82.8933 230.166 83.8846 228.858 84.9948C223.924 89.1978 221.11 95.3238 217.682 100.835C214.253 106.347 209.457 111.719 203.056 112.77C196.834 113.781 190.571 110.272 186.549 105.395C182.545 100.518 180.366 94.4317 178.245 88.4841" stroke="black" stroke-linecap="round" stroke-linejoin="round"/>
<path d="M1109.61 267.765C1132.6 315.028 1193.08 340.147 1242.76 323.077C1250.27 320.5 1257.68 316.951 1263.02 311.083C1268.35 305.215 1271.22 296.611 1268.62 289.097C1264.84 278.133 1250.13 273.692 1239.59 278.49C1229.03 283.308 1222.83 294.906 1221.54 306.444C1218.62 332.752 1238.42 357.633 1262.78 367.922C1287.13 378.212 1314.86 376.705 1340.92 372.165" stroke="black" stroke-linecap="round" stroke-linejoin="round"/>
<path d="M1306.18 352.201L1340.94 372.165L1315.97 402.835" stroke="black" stroke-linecap="round" stroke-linejoin="round"/>
<mask id="mask0_196_2215" style="mask-type:luminance" maskUnits="userSpaceOnUse" x="238" y="806" width="96" height="97">
<path d="M333.313 806.921H238.003V902.231H333.313V806.921Z" fill="white"/>
</mask>
<g mask="url(#mask0_196_2215)">
<path d="M355.363 856.011L353.493 857.881L348.903 862.471L344.313 867.061L339.723 871.651L335.133 876.241L330.543 880.831L325.953 885.421L321.363 890.011L316.773 894.601L307.803 903.571L307.583 903.791L302.993 908.381L298.403 912.971L293.813 917.561L289.223 922.151L287.143 924.231C287.433 924.231 287.723 924.221 288.013 924.211L290.313 921.911L294.903 917.321L299.493 912.731L304.083 908.141L308.673 903.551L313.263 898.961L317.853 894.371L322.443 889.781L327.033 885.191L331.623 880.601L336.213 876.011L340.803 871.421L345.393 866.831L349.983 862.241L354.573 857.651L355.323 856.901C355.323 856.611 355.343 856.321 355.343 856.031L355.363 856.011Z" fill="#0F5132"/>
<path d="M355.093 860.871L353.493 862.471L348.903 867.061L344.313 871.651L339.723 876.241L330.753 885.211L330.533 885.431L325.943 890.021L321.353 894.611L316.763 899.201L312.173 903.791L307.583 908.381L302.993 912.971L298.403 917.561L293.813 922.151L292.003 923.961C292.313 923.931 292.623 923.911 292.933 923.871L299.273 917.531L299.493 917.311L304.083 912.721L308.673 908.131L313.263 903.541L317.853 898.951L322.443 894.361L327.033 889.771L331.623 885.181L336.213 880.591L340.803 876.001L345.393 871.411L349.983 866.821L354.573 862.231L354.993 861.811C355.023 861.501 355.053 861.191 355.083 860.881L355.093 860.871Z" fill="#0F5132"/>
<path d="M317.973 916.371C318.593 916.041 319.213 915.711 319.833 915.361L322.423 912.771L327.013 908.181L331.603 903.591L336.193 899.001L340.783 894.411L345.373 889.821L346.413 888.781C346.763 888.171 347.093 887.551 347.423 886.921L344.283 890.061L339.693 894.651L330.723 903.621L330.503 903.841L325.913 908.431L321.323 913.021L317.963 916.381L317.973 916.371Z" fill="#0F5132"/>
<path d="M309.713 920.041C310.173 919.871 310.623 919.701 311.083 919.521L313.243 917.361L317.833 912.771L322.423 908.181L327.013 903.591L331.603 899.001L336.193 894.411L340.783 889.821L345.373 885.231L349.963 880.641L350.573 880.031C350.753 879.581 350.923 879.121 351.093 878.661L348.873 880.881L344.283 885.471L339.693 890.061L335.103 894.651L330.513 899.241L325.923 903.831L321.333 908.421L316.743 913.011L309.713 920.041Z" fill="#0F5132"/>
<path d="M308.643 917.361L313.233 912.771L317.823 908.181L322.413 903.591L327.003 899.001L331.593 894.411L336.183 889.821L340.773 885.231L345.363 880.641L349.953 876.051L352.843 873.161C352.953 872.771 353.053 872.391 353.153 872.001L348.853 876.301L344.263 880.891L339.673 885.481L335.083 890.071L330.493 894.661L325.903 899.251L321.313 903.841L316.723 908.431L312.133 913.021L307.543 917.611L303.033 922.121C303.423 922.021 303.803 921.911 304.193 921.811L308.633 917.371L308.643 917.361Z" fill="#0F5132"/>
<path d="M304.053 917.361L308.643 912.771L313.233 908.181L322.203 899.211L322.423 898.991L327.013 894.401L331.603 889.811L340.793 880.621L345.383 876.031L349.973 871.441L354.223 867.191C354.283 866.851 354.343 866.511 354.403 866.171L351.183 869.391L348.883 871.691L344.293 876.281L339.703 880.871L335.113 885.461L330.523 890.051L325.933 894.641L321.343 899.231L316.753 903.821L312.163 908.411L307.573 913.001L302.983 917.591L298.393 922.181L297.253 923.321C297.593 923.261 297.933 923.211 298.273 923.141L299.483 921.931L304.073 917.341L304.053 917.361Z" fill="#0F5132"/>
<path d="M241.953 800.271C238.053 803.411 234.503 806.961 231.363 810.861L235.133 807.091L239.723 802.501L241.953 800.271Z" fill="#0F5132"/>
<path d="M354.443 843.151L353.493 844.101L348.903 848.691L344.313 853.281L339.723 857.871L335.133 862.461L330.543 867.051L325.953 871.641L321.363 876.231L316.773 880.821L312.183 885.411L307.593 890.001L303.003 894.591L298.413 899.181L293.823 903.771L289.233 908.361L284.643 912.951L280.053 917.541L275.463 922.131L274.303 923.291C274.543 923.331 274.783 923.371 275.033 923.411L281.153 917.291L285.743 912.701L290.333 908.111L299.303 899.141L299.523 898.921L304.113 894.331L308.703 889.741L313.293 885.151L317.883 880.561L322.473 875.971L327.063 871.381L331.653 866.791L336.243 862.201L340.833 857.611L345.423 853.021L350.013 848.431L354.583 843.861C354.543 843.621 354.503 843.381 354.463 843.131L354.443 843.151Z" fill="#0F5132"/>
<path d="M354.993 847.201L353.493 848.701L348.903 853.291L344.313 857.881L339.723 862.471L332.833 869.361L330.533 871.661L325.943 876.251L321.353 880.841L316.763 885.431L312.173 890.021L307.583 894.611L302.993 899.201L298.403 903.791L293.813 908.381L289.223 912.971L284.633 917.561L280.043 922.151L278.333 923.861C278.593 923.891 278.853 923.911 279.103 923.941L281.133 921.911L285.723 917.321L290.313 912.731L294.903 908.141L299.493 903.551L304.083 898.961L308.673 894.371L313.263 889.781L322.453 880.591L327.043 876.001L331.633 871.411L339.063 863.981L340.823 862.231L345.413 857.641L350.003 853.051L354.593 848.461L355.073 847.981C355.053 847.721 355.023 847.461 354.993 847.211V847.201Z" fill="#0F5132"/>
<path d="M355.313 851.471L353.503 853.281L348.913 857.871L344.323 862.461L339.733 867.051L335.143 871.641L330.553 876.231L325.963 880.821L321.373 885.411L316.783 890.001L312.193 894.591L307.603 899.181L303.013 903.771L298.423 908.361L293.833 912.951L284.643 922.141L282.623 924.161C282.893 924.171 283.163 924.181 283.443 924.191L285.743 921.891L290.333 917.301L294.923 912.711L299.513 908.121L304.103 903.531L308.693 898.941L313.283 894.351L317.873 889.761L322.463 885.171L327.053 880.581L331.643 875.991L336.233 871.401L340.823 866.811L345.413 862.221L350.003 857.631L354.593 853.041L355.343 852.291C355.343 852.021 355.323 851.741 355.313 851.471Z" fill="#0F5132"/>
<path d="M349.073 825.561L348.903 825.731L344.313 830.321L339.723 834.911L335.133 839.501L330.543 844.091L325.953 848.681L321.363 853.271L316.773 857.861L312.183 862.451L307.593 867.041L303.003 871.631L298.413 876.221L293.823 880.811L289.233 885.401L284.643 889.991L280.053 894.581L275.463 899.171L270.873 903.761L266.283 908.351L261.693 912.941L257.103 917.531L256.733 917.901C256.923 917.991 257.123 918.081 257.313 918.171L257.973 917.511L258.193 917.291L262.783 912.701L267.373 908.111L271.963 903.521L276.553 898.931L281.143 894.341L285.733 889.751L290.323 885.161L294.913 880.571L299.503 875.981L304.093 871.391L308.683 866.801L313.273 862.211L317.863 857.621L322.453 853.031L327.043 848.441L331.633 843.851L336.223 839.261L340.813 834.671L345.403 830.081L349.333 826.151C349.243 825.961 349.153 825.761 349.073 825.571V825.561Z" fill="#0F5132"/>
<path d="M350.683 829.381C350.603 829.181 350.523 828.971 350.443 828.771L348.903 830.311L344.313 834.901L339.723 839.491L335.133 844.081L330.543 848.671L325.953 853.261L321.363 857.851L316.773 862.441L309.883 869.331L307.583 871.631L302.993 876.221L298.403 880.811L293.813 885.401L289.223 889.991L284.633 894.581L280.043 899.171L275.453 903.761L270.863 908.351L266.273 912.941L261.683 917.531L259.933 919.281C260.133 919.361 260.343 919.441 260.543 919.521L262.783 917.281L267.373 912.691L271.963 908.101L281.153 898.911L285.743 894.321L290.333 889.731L299.523 880.541L304.113 875.951L308.703 871.361L313.293 866.771L317.883 862.181L322.473 857.591L327.063 853.001L331.653 848.411L336.243 843.821L340.833 839.231L345.423 834.641L350.013 830.051L350.703 829.361L350.683 829.381Z" fill="#0F5132"/>
<path d="M344.173 816.661L339.713 821.121L335.123 825.711L330.533 830.301L325.943 834.891L321.353 839.481L316.763 844.071L312.173 848.661L307.583 853.251L302.993 857.841L298.403 862.431L293.813 867.021L289.223 871.611L284.633 876.201L280.043 880.791L275.453 885.381L270.863 889.971L266.273 894.561L261.683 899.151L257.093 903.741L252.503 908.331L247.913 912.921L247.843 912.991C248.013 913.101 248.183 913.211 248.353 913.321L249.003 912.671L253.593 908.081L258.183 903.491L262.773 898.901L267.363 894.311L271.953 889.721L281.143 880.531L285.733 875.941L290.323 871.351L297.753 863.921L299.503 862.171L304.093 857.581L308.683 852.991L313.273 848.401L317.863 843.811L322.453 839.221L327.043 834.631L331.633 830.041L336.223 825.451L340.813 820.861L344.513 817.161C344.403 816.991 344.293 816.821 344.183 816.651L344.173 816.661Z" fill="#0F5132"/>
<path d="M346.243 820.041C346.143 819.861 346.033 819.681 345.933 819.501L344.313 821.121L339.723 825.711L335.133 830.301L330.543 834.891L325.953 839.481L321.363 844.071L316.773 848.661L312.183 853.251L307.593 857.841L303.003 862.431L298.413 867.021L293.823 871.611L289.233 876.201L284.643 880.791L280.053 885.381L275.463 889.971L270.873 894.561L266.283 899.151L261.693 903.741L257.103 908.331L252.513 912.921L250.683 914.751C250.863 914.851 251.043 914.961 251.223 915.061L253.603 912.681L258.193 908.091L262.783 903.501L267.373 898.911L271.963 894.321L276.553 889.731L281.143 885.141L285.733 880.551L290.323 875.961L294.913 871.371L299.503 866.781L304.093 862.191L308.683 857.601L313.273 853.011L317.863 848.421L322.453 843.831L327.043 839.241L331.633 834.651L336.223 830.061L340.813 825.471L345.403 820.881L346.243 820.041Z" fill="#0F5132"/>
<path d="M338.643 809.261C338.513 809.111 338.383 808.961 338.253 808.801L335.123 811.931L330.533 816.521L325.943 821.111L321.353 825.701L316.763 830.291L312.173 834.881L307.583 839.471L302.993 844.061L298.403 848.651L293.813 853.241L289.223 857.831L284.633 862.421L280.043 867.011L275.453 871.601L270.863 876.191L266.273 880.781L261.683 885.371L257.093 889.961L252.503 894.551L243.313 903.741L239.973 907.081C240.123 907.211 240.273 907.341 240.433 907.471L244.403 903.501L248.993 898.911L253.583 894.321L258.173 889.731L262.763 885.141L267.353 880.551L271.943 875.961L276.533 871.371L281.123 866.781L285.713 862.191L290.303 857.601L294.893 853.011L299.483 848.421L304.073 843.831L308.663 839.241L313.253 834.651L317.843 830.061L322.433 825.471L327.023 820.881L331.613 816.291L336.203 811.701L338.633 809.271L338.643 809.261Z" fill="#0F5132"/>
<path d="M336.473 806.841C336.333 806.691 336.203 806.551 336.063 806.401L335.123 807.341L330.533 811.931L325.943 816.521L321.353 821.111L316.763 825.701L312.173 830.291L307.583 834.881L302.993 839.471L298.403 844.061L293.813 848.651L289.223 853.241L284.633 857.831L280.043 862.421L275.453 867.011L270.863 871.601L266.273 876.191L261.683 880.781L257.093 885.371L252.503 889.961L247.913 894.551L243.323 899.141L238.733 903.731L237.593 904.871C237.733 905.011 237.883 905.141 238.033 905.281L239.833 903.481L244.423 898.891L249.013 894.301L253.603 889.711L258.193 885.121L262.783 880.531L267.373 875.941L271.963 871.351L280.813 862.501L281.153 862.161L285.743 857.571L290.333 852.981L294.923 848.391L299.513 843.801L304.103 839.211L308.693 834.621L313.283 830.031L317.873 825.441L322.463 820.851L327.053 816.261L331.643 811.671L336.233 807.081L336.493 806.821L336.473 806.841Z" fill="#0F5132"/>
<path d="M340.713 811.791C340.593 811.631 340.463 811.471 340.343 811.321L339.723 811.941L335.133 816.531L330.543 821.121L325.953 825.711L321.363 830.301L316.773 834.891L312.183 839.481L307.593 844.071L303.003 848.661L298.413 853.251L293.823 857.841L289.233 862.431L284.643 867.021L280.053 871.611L275.463 876.201L266.493 885.171L266.273 885.391L261.683 889.981L257.093 894.571L252.503 899.161L247.913 903.751L243.323 908.341L242.493 909.171C242.653 909.301 242.813 909.421 242.973 909.541L244.423 908.091L249.013 903.501L253.603 898.911L258.193 894.321L262.783 889.731L267.373 885.141L271.963 880.551L276.553 875.961L281.143 871.371L285.733 866.781L290.323 862.191L294.913 857.601L299.503 853.011L304.093 848.421L308.683 843.831L313.273 839.241L317.863 834.651L322.453 830.061L327.043 825.471L331.633 820.881L336.223 816.291L340.723 811.791H340.713Z" fill="#0F5132"/>
<path d="M334.193 804.531C334.053 804.391 333.913 804.251 333.763 804.111L330.523 807.351L325.933 811.941L321.343 816.531L316.753 821.121L312.163 825.711L307.573 830.301L302.983 834.891L298.393 839.481L293.803 844.071L289.213 848.661L284.623 853.251L280.033 857.841L275.443 862.431L268.553 869.321L266.253 871.621L261.663 876.211L257.073 880.801L252.483 885.391L247.893 889.981L243.303 894.571L238.713 899.161L235.273 902.601C235.413 902.741 235.553 902.891 235.693 903.031L239.803 898.921L244.393 894.331L248.983 889.741L258.173 880.551L262.763 875.961L267.353 871.371L271.943 866.781L276.533 862.191L281.123 857.601L285.713 853.011L290.303 848.421L294.893 843.831L299.483 839.241L304.073 834.651L308.663 830.061L313.253 825.471L317.843 820.881L322.433 816.291L327.023 811.701L331.613 807.111L334.183 804.541L334.193 804.531Z" fill="#0F5132"/>
<path d="M293.763 788.971L289.173 793.561L284.583 798.151L279.993 802.741L275.403 807.331L270.813 811.921L266.223 816.511L261.633 821.101L257.043 825.691L252.453 830.281L247.863 834.871L243.273 839.461L238.683 844.051L234.093 848.641L229.503 853.231L224.913 857.821L220.323 862.411L216.933 865.801C216.973 866.041 217.013 866.291 217.053 866.531L221.413 862.171L226.003 857.581L230.593 852.991L235.183 848.401L239.773 843.811L244.363 839.221L248.953 834.631L253.543 830.041L258.133 825.451L262.723 820.861L267.313 816.271L271.903 811.681L276.493 807.091L281.083 802.501L285.673 797.911L290.263 793.321L294.853 788.731L297.673 785.911C297.433 785.871 297.193 785.831 296.943 785.791L293.753 788.981L293.763 788.971Z" fill="#0F5132"/>
<path d="M289.173 788.971L284.583 793.561L279.993 798.151L275.403 802.741L270.813 807.331L266.223 811.921L261.633 816.511L257.043 821.101L252.453 825.691L247.863 830.281L243.273 834.871L238.683 839.461L234.093 844.051L229.503 848.641L224.913 853.231L220.323 857.821L216.393 861.751C216.423 862.001 216.453 862.261 216.483 862.511L216.823 862.171L221.413 857.581L226.003 852.991L230.593 848.401L235.183 843.811L239.773 839.221L244.363 834.631L248.953 830.041L253.543 825.451L258.133 820.861L262.723 816.271L267.313 811.681L271.903 807.091L276.493 802.501L281.083 797.911L285.673 793.321L290.263 788.731L293.663 785.331C293.413 785.301 293.153 785.271 292.903 785.241L289.173 788.971Z" fill="#0F5132"/>
<path d="M284.573 788.971L279.983 793.561L275.393 798.151L270.803 802.741L266.213 807.331L261.623 811.921L257.033 816.511L252.443 821.101L247.853 825.691L243.263 830.281L238.673 834.871L234.083 839.461L229.493 844.051L224.903 848.641L220.313 853.231L216.083 857.461C216.093 857.731 216.103 858.001 216.123 858.271L216.823 857.571L221.413 852.981L226.003 848.391L230.593 843.801L235.183 839.211L239.773 834.621L244.363 830.031L248.953 825.441L253.543 820.851L258.133 816.261L262.723 811.671L267.313 807.081L271.903 802.491L276.493 797.901L281.083 793.311L285.673 788.721L289.433 784.961C289.163 784.951 288.893 784.941 288.623 784.921L284.583 788.961L284.573 788.971Z" fill="#0F5132"/>
<path d="M279.983 788.971L275.393 793.561L270.803 798.151L266.213 802.741L261.623 807.331L257.033 811.921L252.443 816.511L247.853 821.101L243.263 825.691L238.673 830.281L234.083 834.871L229.493 839.461L224.903 844.051L220.313 848.641L216.033 852.921C216.033 853.211 216.033 853.491 216.023 853.781L216.813 852.991L221.403 848.401L225.993 843.811L230.583 839.221L235.173 834.631L239.763 830.041L244.353 825.451L248.943 820.861L253.533 816.271L258.123 811.681L262.713 807.091L267.303 802.501L271.893 797.911L276.483 793.321L281.073 788.731L284.923 784.881C284.633 784.881 284.353 784.881 284.063 784.891L279.983 788.971Z" fill="#0F5132"/>
<path d="M270.793 788.971L266.203 793.561L261.613 798.151L257.023 802.741L252.433 807.331L247.843 811.921L243.253 816.511L238.663 821.101L234.073 825.691L229.483 830.281L224.893 834.871L220.303 839.461L216.993 842.761C216.933 843.101 216.873 843.441 216.823 843.781L221.393 839.211L225.983 834.621L230.573 830.031L235.163 825.441L239.753 820.851L244.343 816.261L248.933 811.671L253.523 807.081L258.113 802.491L262.703 797.901L267.293 793.311L271.883 788.721L274.913 785.691C274.573 785.741 274.233 785.801 273.893 785.861L270.783 788.971H270.793Z" fill="#0F5132"/>
<path d="M271.883 921.951L276.473 917.361L281.063 912.771L285.653 908.181L290.243 903.591L294.833 899.001L299.423 894.411L304.013 889.821L308.603 885.231L313.193 880.641L317.783 876.051L322.373 871.461L326.963 866.871L331.553 862.281L336.143 857.691L340.733 853.101L345.323 848.511L349.913 843.921L353.763 840.071C353.713 839.841 353.663 839.611 353.613 839.371L353.413 839.571L348.823 844.161L344.233 848.751L339.643 853.341L335.053 857.931L330.463 862.521L325.873 867.111L321.283 871.701L316.693 876.291L307.723 885.261L307.503 885.481L302.913 890.071L298.323 894.661L293.733 899.251L289.143 903.841L284.553 908.431L279.963 913.021L275.373 917.611L270.783 922.201L270.373 922.611C270.603 922.661 270.833 922.711 271.073 922.761L271.883 921.951Z" fill="#0F5132"/>
<path d="M271.883 917.361L276.473 912.771L281.063 908.181L285.653 903.591L290.243 899.001L294.833 894.411L299.423 889.821L304.013 885.231L308.603 880.641L313.193 876.051L317.783 871.461L322.373 866.871L326.963 862.281L331.553 857.691L336.143 853.101L340.733 848.511L345.323 843.921L349.913 839.331L352.873 836.371C352.813 836.151 352.753 835.921 352.693 835.701L348.823 839.571L344.233 844.161L339.643 848.751L335.053 853.341L330.463 857.931L325.873 862.521L321.283 867.111L316.693 871.701L312.103 876.291L307.513 880.881L302.923 885.471L298.333 890.061L293.743 894.651L284.553 903.841L279.963 908.431L275.373 913.021L266.693 921.701C266.913 921.761 267.133 921.821 267.363 921.881L271.873 917.371L271.883 917.361Z" fill="#0F5132"/>
<path d="M267.293 917.361L271.883 912.771L276.473 908.181L281.063 903.591L285.653 899.001L290.243 894.411L294.833 889.821L299.423 885.231L304.013 880.641L308.603 876.051L313.193 871.461L320.623 864.031L322.373 862.281L326.963 857.691L331.553 853.101L336.143 848.511L340.733 843.921L345.323 839.331L349.913 834.741L351.813 832.841C351.743 832.631 351.673 832.411 351.603 832.201L348.823 834.981L344.233 839.571L339.643 844.161L335.053 848.751L330.463 853.341L325.873 857.931L321.283 862.521L316.693 867.111L312.103 871.701L307.513 876.291L302.923 880.881L298.333 885.471L293.743 890.061L289.153 894.651L284.563 899.241L279.973 903.831L275.383 908.421L270.793 913.011L266.203 917.601L263.213 920.591C263.423 920.661 263.643 920.731 263.853 920.801L267.303 917.351L267.293 917.361Z" fill="#0F5132"/>
<path d="M262.663 788.751C262.223 788.901 261.783 789.061 261.343 789.231L257.013 793.561L252.423 798.151L247.833 802.741L243.243 807.331L238.653 811.921L234.063 816.511L229.473 821.101L224.883 825.691L220.353 830.221C220.193 830.661 220.033 831.101 219.873 831.541L221.373 830.041L225.963 825.451L230.553 820.861L235.143 816.271L239.733 811.681L244.323 807.091L248.913 802.501L253.503 797.911L258.093 793.321L262.653 788.761L262.663 788.751Z" fill="#0F5132"/>
<path d="M258.103 912.761L262.693 908.171L267.283 903.581L271.873 898.991L276.463 894.401L281.053 889.811L285.643 885.221L290.233 880.631L294.823 876.041L299.413 871.451L304.003 866.861L308.593 862.271L313.183 857.681L317.773 853.091L322.363 848.501L326.953 843.911L331.543 839.321L336.133 834.731L340.723 830.141L345.313 825.551L347.763 823.101C347.663 822.911 347.573 822.731 347.473 822.541L344.223 825.791L339.633 830.381L335.043 834.971L330.453 839.561L325.863 844.151L321.273 848.741L316.683 853.331L312.093 857.921L307.503 862.511L302.913 867.101L298.323 871.691L293.733 876.281L284.543 885.471L279.953 890.061L275.363 894.651L266.393 903.621L266.173 903.841L261.583 908.431L256.993 913.021L253.533 916.481C253.723 916.581 253.903 916.671 254.093 916.771L258.083 912.781L258.103 912.761Z" fill="#0F5132"/>
<path d="M252.993 792.991L252.413 793.571L247.823 798.161L243.233 802.751L238.643 807.341L234.053 811.931L229.463 816.521L224.873 821.111L224.103 821.881C223.793 822.461 223.503 823.041 223.213 823.621L225.973 820.861L230.563 816.271L235.153 811.681L239.743 807.091L244.333 802.501L248.923 797.911L253.513 793.321L254.733 792.101C254.143 792.391 253.563 792.691 252.993 792.991Z" fill="#0F5132"/>
<path d="M248.913 908.171L257.883 899.201L258.103 898.981L262.693 894.391L267.283 889.801L271.873 885.211L276.463 880.621L281.053 876.031L285.643 871.441L290.233 866.851L294.823 862.261L299.413 857.671L304.003 853.081L308.593 848.491L313.183 843.901L317.773 839.311L322.363 834.721L326.953 830.131L331.543 825.541L336.133 820.951L340.723 816.361L342.583 814.501C342.463 814.331 342.353 814.171 342.233 814.011L339.633 816.611L335.043 821.201L330.453 825.791L325.863 830.381L321.273 834.971L316.683 839.561L312.093 844.151L307.503 848.741L302.913 853.331L298.323 857.921L293.733 862.511L284.543 871.701L279.953 876.291L275.363 880.881L270.773 885.471L266.183 890.061L261.593 894.651L257.003 899.241L252.413 903.831L247.823 908.421L245.023 911.221C245.183 911.341 245.353 911.461 245.513 911.571L248.913 908.171Z" fill="#0F5132"/>
<path d="M233.003 900.261C233.133 900.411 233.273 900.561 233.403 900.711L235.133 898.981L239.723 894.391L244.313 889.801L248.903 885.211L253.493 880.621L258.083 876.031L262.673 871.441L267.263 866.851L271.853 862.261L276.443 857.671L281.033 853.081L285.623 848.491L290.213 843.901L294.803 839.311L299.393 834.721L303.983 830.131L308.573 825.541L313.163 820.951L317.753 816.361L322.343 811.771L326.933 807.181L331.523 802.591L331.713 802.401C331.563 802.271 331.413 802.131 331.263 802.001L330.433 802.831L325.843 807.421L321.253 812.011L316.663 816.601L312.073 821.191L307.483 825.781L302.893 830.371L298.303 834.961L293.713 839.551L289.123 844.141L284.533 848.731L279.943 853.321L275.353 857.911L270.763 862.501L266.173 867.091L261.583 871.681L256.993 876.271L252.403 880.861L247.813 885.451L243.223 890.041L238.633 894.631L234.043 899.221L233.013 900.251L233.003 900.261Z" fill="#0F5132"/>
<path d="M228.953 895.121C229.073 895.281 229.193 895.451 229.313 895.611L230.543 894.381L235.133 889.791L239.723 885.201L244.313 880.611L248.903 876.021L253.493 871.431L258.083 866.841L262.673 862.251L267.263 857.661L271.853 853.071L276.443 848.481L281.033 843.891L285.623 839.301L290.213 834.711L294.803 830.121L299.393 825.531L303.983 820.941L308.573 816.351L313.163 811.761L317.753 807.171L322.343 802.581L326.623 798.301C326.463 798.181 326.293 798.061 326.133 797.941L325.843 798.231L321.253 802.821L316.663 807.411L312.073 812.001L307.483 816.591L302.893 821.181L298.303 825.771L293.713 830.361L289.123 834.951L284.533 839.541L279.943 844.131L275.353 848.721L270.763 853.311L266.173 857.901L261.583 862.491L256.993 867.081L252.403 871.671L247.813 876.261L243.223 880.851L238.633 885.441L234.043 890.031L229.453 894.621L228.963 895.111L228.953 895.121Z" fill="#0F5132"/>
<path d="M230.533 889.791L239.723 880.601L244.313 876.011L248.903 871.421L256.333 863.991L258.083 862.241L262.673 857.651L267.263 853.061L271.853 848.471L276.443 843.881L281.033 839.291L285.623 834.701L290.213 830.111L294.803 825.521L299.393 820.931L303.983 816.341L308.573 811.751L313.163 807.161L317.753 802.571L322.343 797.981L323.913 796.411C323.743 796.301 323.573 796.181 323.403 796.071L321.253 798.221L316.663 802.811L312.073 807.401L307.483 811.991L302.893 816.581L298.303 821.171L293.713 825.761L289.123 830.351L284.533 834.941L279.943 839.531L275.353 844.121L270.763 848.711L266.173 853.301L261.583 857.891L256.993 862.481L252.403 867.071L247.813 871.661L243.223 876.251L238.633 880.841L234.043 885.431L229.453 890.021L227.103 892.371C227.213 892.541 227.323 892.711 227.443 892.881L230.553 889.771L230.533 889.791Z" fill="#0F5132"/>
<path d="M231.303 898.221L235.133 894.391L239.723 889.801L244.313 885.211L248.903 880.621L253.493 876.031L258.083 871.441L262.673 866.851L267.263 862.261L271.853 857.671L276.443 853.081L281.033 848.491L285.623 843.901L290.213 839.311L294.803 834.721L299.393 830.131L303.983 825.541L308.573 820.951L313.163 816.361L317.753 811.771L322.343 807.181L326.933 802.591L329.223 800.301C329.063 800.171 328.913 800.051 328.753 799.921L325.843 802.831L321.253 807.421L316.663 812.011L312.073 816.601L307.483 821.191L302.893 825.781L298.303 830.371L293.713 834.961L289.123 839.551L284.533 844.141L279.943 848.731L275.353 853.321L270.763 857.911L266.173 862.501L261.583 867.091L256.993 871.681L252.403 876.271L243.213 885.461L238.623 890.051L234.033 894.641L230.923 897.751C231.043 897.911 231.173 898.061 231.303 898.221Z" fill="#0F5132"/>
<path d="M224.843 885.451L223.713 886.581C223.813 886.771 223.903 886.951 224.003 887.141L225.933 885.211L230.523 880.621L235.113 876.031L239.703 871.441L244.293 866.851L248.883 862.261L253.473 857.671L258.063 853.081L262.653 848.491L267.243 843.901L271.833 839.311L276.423 834.721L281.013 830.131L285.603 825.541L290.193 820.951L294.783 816.361L299.373 811.771L303.963 807.181L308.553 802.591L313.143 798.001L317.733 793.411L318.123 793.021C317.943 792.921 317.753 792.821 317.573 792.731L316.643 793.661L312.053 798.251L307.463 802.841L302.873 807.431L298.283 812.021L293.693 816.611L289.103 821.201L284.513 825.791L279.923 830.381L275.333 834.971L270.743 839.561L266.153 844.151L261.563 848.741L256.973 853.331L252.383 857.921L247.793 862.511L243.203 867.101L238.613 871.691L234.023 876.281L225.053 885.251L224.833 885.471L224.843 885.451Z" fill="#0F5132"/>
<path d="M225.943 880.611L230.533 876.021L235.123 871.431L239.713 866.841L244.303 862.251L248.893 857.661L253.483 853.071L258.073 848.481L262.663 843.891L267.253 839.301L271.843 834.711L276.433 830.121L281.023 825.531L285.613 820.941L290.203 816.351L294.793 811.761L299.383 807.171L303.973 802.581L308.563 797.991L313.153 793.401L315.073 791.481C314.883 791.391 314.693 791.301 314.493 791.211L312.053 793.651L307.463 798.241L302.873 802.831L298.283 807.421L293.693 812.011L289.103 816.601L284.513 821.191L279.923 825.781L275.333 830.371L270.743 834.961L266.153 839.551L261.563 844.141L256.973 848.731L252.383 853.321L247.793 857.911L243.203 862.501L238.613 867.091L234.023 871.681L229.433 876.271L224.843 880.861L222.213 883.491C222.303 883.681 222.393 883.881 222.483 884.071L225.943 880.611Z" fill="#0F5132"/>
<path d="M225.663 890.081L225.943 889.801L230.533 885.211L235.123 880.621L239.713 876.031L244.303 871.441L248.893 866.851L253.483 862.261L258.073 857.671L262.663 853.081L267.253 848.491L271.843 843.901L276.433 839.311L281.023 834.721L285.613 830.131L290.203 825.541L294.793 820.951L299.383 816.361L303.973 811.771L308.563 807.181L313.153 802.591L317.743 798.001L321.083 794.661C320.903 794.551 320.733 794.451 320.553 794.351L316.653 798.251L312.063 802.841L307.473 807.431L302.883 812.021L298.293 816.611L293.703 821.201L289.113 825.791L284.523 830.381L279.933 834.971L275.343 839.561L270.753 844.151L266.163 848.741L261.573 853.331L256.983 857.921L252.393 862.511L243.203 871.701L238.613 876.291L234.023 880.881L229.433 885.471L225.333 889.571C225.433 889.751 225.543 889.931 225.643 890.101L225.663 890.081Z" fill="#0F5132"/>
<path d="M221.343 834.661L225.933 830.071L230.523 825.481L235.113 820.891L239.703 816.301L244.293 811.711L248.883 807.121L253.473 802.531L258.063 797.941L262.653 793.351L267.243 788.761L269.133 786.871C268.753 786.961 268.383 787.051 268.003 787.151L266.143 789.011L261.553 793.601L256.963 798.191L252.373 802.781L247.783 807.371L243.193 811.961L238.603 816.551L234.013 821.141L229.423 825.731L224.833 830.321L220.243 834.911L218.193 836.961C218.093 837.331 218.003 837.711 217.913 838.091L221.343 834.661Z" fill="#0F5132"/>
<path d="M221.343 866.821L225.933 862.231L230.523 857.641L235.113 853.051L239.703 848.461L244.293 843.871L248.883 839.281L253.473 834.691L258.063 830.101L262.653 825.511L267.243 820.921L271.833 816.331L276.423 811.741L281.013 807.151L285.603 802.561L290.193 797.971L294.783 793.381L299.373 788.791L301.423 786.741C301.193 786.691 300.963 786.641 300.733 786.591L298.283 789.041L293.693 793.631L289.103 798.221L284.513 802.811L279.923 807.401L275.333 811.991L270.743 816.581L266.153 821.171L261.563 825.761L256.973 830.351L252.383 834.941L247.793 839.531L243.203 844.121L238.613 848.711L234.023 853.301L229.433 857.891L224.843 862.481L220.253 867.071L217.603 869.721C217.653 869.951 217.703 870.181 217.753 870.411L221.343 866.821Z" fill="#0F5132"/>
<path d="M219.823 877.531L221.343 876.011L225.933 871.421L230.523 866.831L235.113 862.241L239.703 857.651L244.293 853.061L248.883 848.471L253.473 843.881L258.063 839.291L262.653 834.701L267.243 830.111L271.833 825.521L276.423 820.931L281.013 816.341L285.603 811.751L290.193 807.161L294.783 802.571L299.373 797.981L303.963 793.391L308.543 788.811C308.333 788.741 308.123 788.661 307.913 788.591L307.463 789.041L302.873 793.631L298.283 798.221L293.693 802.811L289.103 807.401L284.513 811.991L279.923 816.581L275.333 821.171L270.743 825.761L266.153 830.351L261.563 834.941L256.973 839.531L252.383 844.121L247.793 848.711L243.203 853.301L238.613 857.891L234.023 862.481L227.133 869.371L224.833 871.671L220.243 876.261L219.593 876.911C219.663 877.121 219.743 877.331 219.813 877.541L219.823 877.531Z" fill="#0F5132"/>
<path d="M221.343 871.421L225.933 866.831L230.523 862.241L235.113 857.651L239.703 853.061L244.293 848.471L248.883 843.881L253.473 839.291L258.063 834.701L262.653 830.111L267.243 825.521L271.833 820.931L276.423 816.341L281.013 811.751L285.603 807.161L290.193 802.571L294.783 797.981L299.373 793.391L303.963 788.801L305.063 787.701C304.843 787.641 304.623 787.571 304.403 787.511L302.873 789.041L298.283 793.631L293.693 798.221L289.103 802.811L284.513 807.401L279.923 811.991L275.333 816.581L270.743 821.171L266.153 825.761L261.563 830.351L256.973 834.941L252.383 839.531L247.793 844.121L243.203 848.711L238.613 853.301L234.023 857.891L229.433 862.481L224.843 867.071L220.253 871.661L218.523 873.391C218.583 873.611 218.643 873.831 218.713 874.051L221.343 871.421Z" fill="#0F5132"/>
<path d="M221.083 880.871L221.343 880.611L225.933 876.021L230.523 871.431L239.373 862.581L239.713 862.241L244.303 857.651L248.893 853.061L253.483 848.471L258.073 843.881L262.663 839.291L267.253 834.701L271.843 830.111L276.433 825.521L281.023 820.931L285.613 816.341L290.203 811.751L294.793 807.161L299.383 802.571L303.973 797.981L308.563 793.391L311.883 790.071C311.683 789.991 311.483 789.901 311.283 789.821L307.473 793.631L302.883 798.221L298.293 802.811L293.703 807.401L289.113 811.991L284.523 816.581L279.933 821.171L275.343 825.761L270.753 830.351L266.163 834.941L261.573 839.531L256.983 844.121L252.393 848.711L247.803 853.301L243.213 857.891L238.623 862.481L234.033 867.071L229.443 871.661L224.853 876.251L220.843 880.261C220.923 880.461 221.003 880.661 221.093 880.861L221.083 880.871Z" fill="#0F5132"/>
<path d="M216.753 848.451L221.343 843.861L225.933 839.271L230.523 834.681L235.113 830.091L239.703 825.501L244.293 820.911L248.883 816.321L253.473 811.731L258.063 807.141L262.653 802.551L267.243 797.961L271.833 793.371L276.423 788.781L280.063 785.141C279.753 785.161 279.443 785.191 279.133 785.221L275.333 789.021L270.743 793.611L266.153 798.201L261.563 802.791L256.973 807.381L252.383 811.971L247.793 816.561L243.203 821.151L238.613 825.741L234.023 830.331L229.433 834.921L224.843 839.511L220.253 844.101L216.253 848.101C216.223 848.411 216.193 848.721 216.173 849.031L216.753 848.451Z" fill="#0F5132"/>
</g>
<path d="M1290.16 720.491H1180.71V901.731H1290.16V720.491Z" fill="white" stroke="black" stroke-linecap="round" stroke-linejoin="round"/>
<path d="M1385.23 752.071H1302.9V902.361H1385.23V752.071Z" fill="#2F815A"/>
<path d="M136.876 808.921H54.5455V902.361H136.876V808.921Z" fill="white" stroke="black" stroke-linecap="round" stroke-linejoin="round"/>
<path d="M220.433 827.011H162.173V901.891H220.433V827.011Z" fill="white" stroke="black" stroke-linecap="round" stroke-linejoin="round"/>
<g clip-path="url(#clip0_196_2215)">
<path d="M1220.58 657.301L1153.92 671.811C1152.43 672.131 1150.91 671.421 1150.19 670.071L1119.82 602.411C1118.15 599.271 1114.25 598.081 1111.11 599.741L1109.11 600.801L1140.64 680.161L1140.69 680.251C1141.61 681.981 1143.6 682.851 1145.49 682.351L1226.7 661.181C1226.05 658.441 1223.33 656.721 1220.57 657.301H1220.58Z" fill="#0F5132"/>
<path d="M1112.01 774.911C1112.01 774.911 1106.57 786.161 1102.53 788.721L1091.44 791.351C1086.23 791.971 1084.49 795.731 1084.49 795.731L1113.8 809.291L1127.9 781.771L1112.02 774.911H1112.01Z" fill="black"/>
<path d="M1263.89 677.171C1263.89 677.171 1194.1 679.791 1161.36 684.761C1151.89 686.201 1143.7 692.141 1139.3 700.651L1100.79 775.061L1134.9 793.001L1174.4 721.501L1246.22 719.361L1263.89 677.161V677.171Z" fill="white" stroke="black" stroke-linecap="round" stroke-linejoin="round"/>
<path d="M1266.63 660.261C1265.72 663.291 1264.34 666.181 1262.38 668.671C1246.04 689.421 1212.16 664.061 1184.47 664.271C1180.65 664.301 1177.26 664.371 1176.44 665.601C1175.06 667.661 1173.43 670.631 1172.43 670.551C1171.28 670.451 1173.08 666.411 1174.1 663.371C1174.1 663.371 1170.69 671.781 1169.44 671.321C1167.93 670.761 1171.78 661.181 1171.78 661.181C1171.78 661.181 1166.88 670.991 1165.62 669.471C1164.36 667.951 1169.69 659.221 1169.69 659.221C1169.69 659.221 1164.65 667.001 1163.03 666.221C1161.72 665.581 1165.99 659.661 1170.38 654.971C1172.98 652.201 1176.36 650.291 1180.1 649.581C1183.67 648.901 1188.92 648.481 1196.42 649.031C1196.42 649.031 1224.4 652.151 1247.7 655.941L1256.73 614.161C1257.84 609.021 1261.73 604.811 1266.86 603.631C1270.87 602.711 1275.38 603.121 1278.34 607.791C1280.44 611.111 1280.79 615.241 1279.61 618.991L1266.63 660.281V660.261Z" fill="white" stroke="black" stroke-linecap="round" stroke-linejoin="round"/>
<path d="M1178.56 791.521C1178.56 791.521 1186.23 805.611 1185.84 810.381L1181.27 820.831C1178.63 825.371 1180.59 829.011 1180.59 829.011L1209.05 813.751L1195.5 785.841L1178.55 791.511L1178.56 791.521Z" fill="black"/>
<path d="M1270.91 668.321C1270.91 668.321 1173.41 662.551 1145.32 689.001C1122.68 710.321 1172.61 801.931 1172.61 801.931L1208.14 786.971L1179.26 722.401L1262.23 721.321C1262.23 721.321 1295.96 711.681 1287.28 668.321H1270.9H1270.91Z" fill="white" stroke="black" stroke-linecap="round" stroke-linejoin="round"/>
<path d="M1319.98 601.111C1319.98 601.111 1322.06 590.441 1310.03 586.071C1299.26 582.161 1298.26 571.081 1298.26 571.081C1298.26 571.081 1294.82 562.411 1285.11 562.961C1275.4 563.501 1280.28 547.051 1263.74 543.781C1261.26 543.291 1258.97 544.281 1256.97 545.951C1250.83 551.071 1249.83 560.141 1254.21 566.821L1276.72 601.101H1319.98V601.111Z" fill="black" stroke="black" stroke-linecap="round" stroke-linejoin="round"/>
<path d="M1257.51 610.321L1246.9 583.871L1256.14 570.781L1278.92 604.351L1257.51 610.321Z" fill="white" stroke="black" stroke-linecap="round" stroke-linejoin="round"/>
<path d="M1251.01 592.361L1255.63 584.931L1248.75 586.871L1251.01 592.361Z" fill="black" stroke="black" stroke-linecap="round" stroke-linejoin="round"/>
<path d="M1274.1 552.491C1279.79 563.531 1269.93 579.941 1258.2 585.991C1246.47 592.041 1237.14 588.101 1232.71 576.501C1228.58 565.671 1230.83 549.511 1242.55 543.461C1254.28 537.411 1268.4 541.451 1274.1 552.491Z" fill="white" stroke="black" stroke-linecap="round" stroke-linejoin="round"/>
<path d="M1275.26 555.591C1271.54 543.911 1259.74 538.211 1247.02 541.731C1237.01 544.501 1230.56 554.281 1229.88 564.151C1230.02 564.191 1237.96 563.941 1241.35 555.141C1241.35 555.141 1242.29 569.301 1257.23 566.551L1263.87 582.161C1272.73 578.061 1279.39 568.521 1275.27 555.591H1275.26Z" fill="black" stroke="black" stroke-linecap="round" stroke-linejoin="round"/>
<path d="M1244.29 580.411C1244.29 580.411 1247.5 580.171 1248.01 576.561Z" fill="white"/>
<path d="M1244.29 580.411C1244.29 580.411 1247.5 580.171 1248.01 576.561" stroke="black" stroke-linecap="round" stroke-linejoin="round"/>
<path d="M1258.87 577.201C1260.29 576.791 1261.63 575.821 1262.55 574.391C1264.4 571.531 1263.88 567.921 1261.4 566.311C1259.71 565.221 1257.95 565.611 1256.42 566.871" fill="white"/>
<path d="M1258.87 577.201C1260.29 576.791 1261.63 575.821 1262.55 574.391C1264.4 571.531 1263.88 567.921 1261.4 566.311C1259.71 565.221 1257.95 565.611 1256.42 566.871" stroke="black" stroke-linecap="round" stroke-linejoin="round"/>
<path d="M1256.97 573.491C1256.97 573.491 1257.66 570.721 1260.1 571.241Z" fill="white"/>
<path d="M1256.97 573.491C1256.97 573.491 1257.66 570.721 1260.1 571.241" stroke="black" stroke-linecap="round" stroke-linejoin="round"/>
<path d="M1265.47 541.121C1265.71 545.351 1269.33 548.581 1273.55 548.341C1277.78 548.101 1281.01 544.481 1280.77 540.261C1280.53 536.031 1276.91 532.801 1272.69 533.041C1268.46 533.281 1265.23 536.901 1265.47 541.121Z" fill="black" stroke="black" stroke-linecap="round" stroke-linejoin="round"/>
<path d="M1252.19 602.181L1274.76 594.121C1274.76 594.121 1301.82 639.041 1302.79 668.911C1302.79 668.911 1270.91 668.321 1243.46 668.011L1252.19 602.171V602.181Z" fill="black"/>
<mask id="mask1_196_2215" style="mask-type:luminance" maskUnits="userSpaceOnUse" x="1243" y="594" width="60" height="75">
<path d="M1252.19 602.181L1274.76 594.121C1274.76 594.121 1301.82 639.041 1302.79 668.911C1302.79 668.911 1270.91 668.321 1243.46 668.011L1252.19 602.171V602.181Z" fill="white"/>
</mask>
<g mask="url(#mask1_196_2215)">
<path d="M1257.71 615.351H1266.8" stroke="white" stroke-linecap="round" stroke-linejoin="round"/>
<path d="M1262.26 606.261L1270.73 602.741" stroke="white" stroke-linecap="round" stroke-linejoin="round"/>
<path d="M1276.52 605.431V615.351" stroke="white" stroke-linecap="round" stroke-linejoin="round"/>
<path d="M1272.18 627.341L1278.17 621.141" stroke="white" stroke-linecap="round" stroke-linejoin="round"/>
<path d="M1260.19 626.101L1259.16 633.541" stroke="white" stroke-linecap="round" stroke-linejoin="round"/>
<path d="M1267.84 636.431L1276.52 638.081" stroke="white" stroke-linecap="round" stroke-linejoin="round"/>
<path d="M1283.75 637.261L1289.53 631.471" stroke="white" stroke-linecap="round" stroke-linejoin="round"/>
<path d="M1272.18 644.901L1278.17 649.651" stroke="white" stroke-linecap="round" stroke-linejoin="round"/>
<path d="M1278.17 659.711H1287.26" stroke="white" stroke-linecap="round" stroke-linejoin="round"/>
<path d="M1282.72 650.621L1291.19 647.101" stroke="white" stroke-linecap="round" stroke-linejoin="round"/>
<path d="M1296.97 649.791V659.711" stroke="white" stroke-linecap="round" stroke-linejoin="round"/>
<path d="M1292.63 671.701L1298.63 665.501" stroke="white" stroke-linecap="round" stroke-linejoin="round"/>
<path d="M1237.29 640.871H1246.38" stroke="white" stroke-linecap="round" stroke-linejoin="round"/>
<path d="M1241.83 631.781L1250.3 628.271" stroke="white" stroke-linecap="round" stroke-linejoin="round"/>
<path d="M1251.75 652.861L1257.74 646.661" stroke="white" stroke-linecap="round" stroke-linejoin="round"/>
<path d="M1247.41 661.951L1256.09 663.601" stroke="white" stroke-linecap="round" stroke-linejoin="round"/>
<path d="M1263.32 662.781L1269.11 656.991" stroke="white" stroke-linecap="round" stroke-linejoin="round"/>
</g>
<path d="M1241.01 672.821C1239.19 675.411 1236.98 677.731 1234.34 679.471C1212.31 694.031 1188.1 659.331 1161.75 650.831C1158.11 649.661 1154.87 648.661 1153.71 649.571C1151.75 651.101 1149.27 653.411 1148.35 653.011C1147.29 652.561 1150.27 649.281 1152.19 646.721C1152.19 646.721 1146.31 653.631 1145.27 652.811C1144.01 651.801 1150.67 643.921 1150.67 643.921C1150.67 643.921 1142.94 651.691 1142.22 649.851C1141.5 648.011 1149.3 641.391 1149.3 641.391C1149.3 641.391 1142.07 647.191 1140.78 645.941C1139.73 644.921 1145.65 640.641 1151.29 637.571C1154.63 635.751 1158.44 635.001 1162.21 635.501C1165.81 635.981 1170.93 637.221 1177.88 640.101C1177.88 640.101 1203.47 651.851 1224.39 662.761L1246.09 625.931C1248.76 621.391 1253.78 618.631 1259.02 619.121C1263.12 619.501 1267.27 621.311 1268.61 626.681C1269.56 630.491 1268.59 634.521 1266.3 637.711L1241.02 672.831L1241.01 672.821Z" fill="white" stroke="black" stroke-linecap="round" stroke-linejoin="round"/>
<path d="M1225.27 652.841L1250.33 670.551C1250.33 670.551 1290.32 620.191 1271.85 608.031C1254.42 596.551 1225.27 652.841 1225.27 652.841Z" fill="black" stroke="black" stroke-linecap="round" stroke-linejoin="round"/>
<mask id="mask2_196_2215" style="mask-type:luminance" maskUnits="userSpaceOnUse" x="1225" y="606" width="52" height="65">
<path d="M1225.27 652.841L1250.33 670.551C1250.33 670.551 1290.32 620.191 1271.85 608.031C1254.42 596.551 1225.27 652.841 1225.27 652.841Z" fill="white"/>
</mask>
<g mask="url(#mask2_196_2215)">
<path d="M1257.71 615.351H1266.8" stroke="white" stroke-linecap="round" stroke-linejoin="round"/>
<path d="M1262.26 606.261L1270.73 602.741" stroke="white" stroke-linecap="round" stroke-linejoin="round"/>
<path d="M1276.52 605.431V615.351" stroke="white" stroke-linecap="round" stroke-linejoin="round"/>
<path d="M1272.18 627.341L1278.17 621.141" stroke="white" stroke-linecap="round" stroke-linejoin="round"/>
<path d="M1260.19 626.101L1259.16 633.541" stroke="white" stroke-linecap="round" stroke-linejoin="round"/>
<path d="M1267.84 636.431L1276.52 638.081" stroke="white" stroke-linecap="round" stroke-linejoin="round"/>
<path d="M1272.18 644.901L1278.17 649.651" stroke="white" stroke-linecap="round" stroke-linejoin="round"/>
<path d="M1237.29 640.871H1246.38" stroke="white" stroke-linecap="round" stroke-linejoin="round"/>
<path d="M1241.83 631.781L1250.3 628.271" stroke="white" stroke-linecap="round" stroke-linejoin="round"/>
<path d="M1251.75 652.861L1257.74 646.661" stroke="white" stroke-linecap="round" stroke-linejoin="round"/>
<path d="M1239.77 651.621L1238.73 659.061" stroke="white" stroke-linecap="round" stroke-linejoin="round"/>
<path d="M1247.41 661.951L1256.09 663.601" stroke="white" stroke-linecap="round" stroke-linejoin="round"/>
<path d="M1263.32 662.781L1269.11 656.991" stroke="white" stroke-linecap="round" stroke-linejoin="round"/>
<path d="M1251.75 670.421L1257.74 675.181" stroke="white" stroke-linecap="round" stroke-linejoin="round"/>
</g>
</g>
<path d="M69.8212 888.824C92.4594 873.836 105.362 845.373 101.711 818.458" stroke="black" stroke-linecap="round" stroke-linejoin="round"/>
<path d="M93.5347 829.226L101.699 818.458L110.596 828.541" stroke="black" stroke-linecap="round" stroke-linejoin="round"/>
<path d="M793.164 50.9968C800.497 63.2291 818.729 64.8548 831.214 57.9555C843.698 51.0563 851.526 38.1302 857.967 25.4023C868.054 5.458 839.002 13.0908 850.694 41.2824C855.51 52.9001 864.17 64.8349 876.694 65.9253C894.53 67.4717 905.31 47.6662 915.774 33.1342C922.928 23.2017 931.588 3.17809 943.142 1.2352C960.601 -1.69895 961.215 23.6577 963.098 30.6164C964.98 37.5751 969.518 44.9303 976.672 45.7828C985.293 46.7939 991.496 38.2888 997.718 32.2421C1011.59 18.7806 1034.32 15.5293 1051.4 24.5498" stroke="black" stroke-linecap="round" stroke-linejoin="round"/>
<path d="M308.784 323.523L306.423 325.883L300.589 331.716L294.755 337.549L288.921 343.381L283.087 349.214L277.253 355.047L271.419 360.88L265.585 366.712L259.752 372.545L248.376 383.918L248.084 384.21L242.25 390.043L236.416 395.876L230.582 401.709L224.748 407.541L222.114 410.175C222.485 410.175 222.855 410.175 223.226 410.136L226.153 407.21L231.987 401.377L237.821 395.544L243.655 389.712L249.488 383.879L255.322 378.046L261.156 372.213L266.99 366.381L272.824 360.548L278.658 354.715L284.492 348.883L290.326 343.05L296.16 337.217L301.994 331.384L307.828 325.552L308.784 324.596C308.784 324.225 308.803 323.855 308.823 323.484L308.784 323.523Z" fill="#2F815A"/>
<path d="M308.452 329.687L306.423 331.716L300.589 337.549L294.755 343.381L288.921 349.214L277.546 360.587L277.253 360.88L271.419 366.712L265.585 372.545L259.752 378.378L253.918 384.21L248.084 390.043L242.25 395.876L236.416 401.709L230.582 407.541L228.28 409.843C228.67 409.804 229.08 409.785 229.47 409.726L237.508 401.689L237.801 401.396L243.635 395.564L249.469 389.731L255.303 383.898L261.137 378.066L266.971 372.233L272.805 366.4L278.639 360.567L284.473 354.735L290.307 348.902L296.14 343.069L301.974 337.237L307.808 331.404L308.335 330.877C308.374 330.487 308.413 330.097 308.452 329.687Z" fill="#2F815A"/>
<path d="M261.371 400.05C262.171 399.641 262.951 399.212 263.732 398.763L267.029 395.466L272.863 389.634L278.697 383.801L284.531 377.968L290.365 372.135L296.199 366.303L297.526 364.976C297.955 364.196 298.384 363.416 298.813 362.616L294.833 366.595L288.999 372.428L277.624 383.801L277.331 384.093L271.497 389.926L265.663 395.759L261.41 400.011L261.371 400.05Z" fill="#2F815A"/>
<path d="M250.893 404.693C251.479 404.479 252.044 404.264 252.63 404.03L255.361 401.299L261.195 395.466L267.029 389.634L272.863 383.801L278.697 377.968L284.531 372.135L290.365 366.303L296.199 360.47L302.033 354.637L302.794 353.876C303.028 353.291 303.243 352.726 303.457 352.14L300.648 354.949L294.814 360.782L288.98 366.615L283.146 372.448L277.312 378.28L271.478 384.113L265.644 389.946L259.81 395.778L250.893 404.693Z" fill="#2F815A"/>
<path d="M249.547 401.299L255.381 395.466L261.215 389.634L267.049 383.801L272.883 377.968L278.717 372.135L284.551 366.303L290.385 360.47L296.218 354.637L302.052 348.805L305.721 345.137C305.857 344.649 305.994 344.162 306.111 343.674L300.667 349.117L294.833 354.949L288.999 360.782L283.165 366.615L277.331 372.448L271.497 378.28L265.663 384.113L259.83 389.946L253.996 395.778L248.162 401.611L242.445 407.327C242.933 407.21 243.42 407.073 243.908 406.937L249.547 401.299Z" fill="#2F815A"/>
<path d="M243.713 401.299L249.547 395.466L255.381 389.634L266.756 378.261L267.049 377.968L272.883 372.135L278.717 366.303L290.365 354.657L296.199 348.824L302.033 342.991L307.418 337.607C307.496 337.178 307.574 336.749 307.633 336.3L303.535 340.377L300.628 343.284L294.794 349.117L288.96 354.949L283.126 360.782L277.292 366.615L271.458 372.448L265.624 378.28L259.791 384.113L253.957 389.946L248.123 395.778L242.289 401.611L236.455 407.444L235.011 408.887C235.44 408.809 235.869 408.751 236.318 408.673L237.86 407.132L243.694 401.299H243.713Z" fill="#2F815A"/>
<path d="M164.984 252.867C160.048 256.847 155.541 261.353 151.56 266.288L156.341 261.509L162.175 255.676L165.004 252.848L164.984 252.867Z" fill="#2F815A"/>
<path d="M307.613 307.234L306.403 308.444L300.57 314.276L294.736 320.109L288.902 325.942L283.068 331.775L277.234 337.607L271.4 343.44L265.566 349.273L259.732 355.105L253.898 360.938L248.064 366.771L242.23 372.604L236.396 378.436L230.562 384.269L224.728 390.102L218.895 395.934L213.061 401.767L207.227 407.6L205.763 409.063C206.075 409.121 206.368 409.16 206.68 409.219L214.446 401.455L220.28 395.622L226.114 389.79L237.489 378.417L237.782 378.124L243.616 372.291L249.449 366.459L255.283 360.626L261.117 354.793L266.951 348.961L272.785 343.128L278.619 337.295L284.453 331.462L290.287 325.63L296.121 319.797L301.955 313.964L307.75 308.171C307.711 307.858 307.652 307.566 307.594 307.254L307.613 307.234Z" fill="#2F815A"/>
<path d="M308.316 312.345L306.423 314.237L300.589 320.07L294.755 325.903L288.921 331.736L280.18 340.475L277.273 343.381L271.439 349.214L265.605 355.047L259.771 360.88L253.937 366.712L248.103 372.545L242.269 378.378L236.435 384.21L230.601 390.043L224.767 395.876L218.934 401.709L213.1 407.541L210.934 409.707C211.266 409.746 211.578 409.765 211.909 409.804L214.485 407.229L220.319 401.396L226.153 395.564L231.987 389.731L237.821 383.898L243.655 378.066L249.489 372.233L255.322 366.4L266.971 354.754L272.805 348.922L278.639 343.089L288.063 333.667L290.287 331.443L296.121 325.61L301.955 319.778L307.789 313.945L308.394 313.34C308.355 313.008 308.335 312.677 308.296 312.365L308.316 312.345Z" fill="#2F815A"/>
<path d="M308.725 317.768L306.423 320.07L300.589 325.903L294.755 331.736L288.921 337.568L283.087 343.401L277.253 349.234L271.419 355.066L265.585 360.899L259.752 366.732L253.918 372.565L248.084 378.397L242.25 384.23L236.416 390.063L230.582 395.895L218.934 407.541L216.358 410.116C216.709 410.116 217.041 410.136 217.392 410.155L220.319 407.229L226.153 401.396L231.987 395.564L237.821 389.731L243.655 383.898L249.489 378.066L255.322 372.233L261.156 366.4L266.99 360.567L272.824 354.735L278.658 348.902L284.492 343.069L290.326 337.237L296.16 331.404L301.994 325.571L307.828 319.738L308.784 318.783C308.784 318.432 308.764 318.1 308.745 317.749L308.725 317.768Z" fill="#2F815A"/>
<path d="M300.804 284.918L300.589 285.132L294.755 290.965L288.921 296.798L283.087 302.631L277.253 308.463L271.419 314.296L265.585 320.129L259.752 325.961L253.918 331.794L248.084 337.627L242.25 343.46L236.416 349.292L230.582 355.125L224.748 360.958L218.914 366.79L213.08 372.623L207.246 378.456L201.412 384.288L195.578 390.121L189.744 395.954L183.91 401.787L183.442 402.255C183.696 402.372 183.93 402.489 184.184 402.586L185.023 401.748L185.315 401.455L191.149 395.622L196.983 389.79L202.817 383.957L208.651 378.124L214.485 372.291L220.319 366.459L226.153 360.626L231.987 354.793L237.821 348.961L243.655 343.128L249.488 337.295L255.322 331.462L261.156 325.63L266.99 319.797L272.824 313.964L278.658 308.132L284.492 302.299L290.326 296.466L296.16 290.633L301.155 285.659C301.038 285.405 300.94 285.171 300.823 284.918H300.804Z" fill="#2F815A"/>
<path d="M302.852 289.775C302.755 289.522 302.657 289.268 302.54 288.995L300.589 290.946L294.755 296.778L288.921 302.611L283.087 308.444L277.253 314.276L271.419 320.109L265.585 325.942L259.752 331.775L251.01 340.514L248.103 343.42L242.269 349.253L236.435 355.086L230.601 360.919L224.767 366.751L218.934 372.584L213.1 378.417L207.266 384.25L201.432 390.082L195.598 395.915L189.764 401.748L187.54 403.971C187.793 404.069 188.047 404.167 188.32 404.284L191.149 401.455L196.983 395.622L202.817 389.79L214.465 378.144L220.299 372.311L226.133 366.478L237.782 354.832L243.616 349L249.449 343.167L255.283 337.334L261.117 331.501L266.951 325.669L272.785 319.836L278.619 314.003L284.453 308.171L290.287 302.338L296.121 296.505L301.955 290.672L302.833 289.795L302.852 289.775Z" fill="#2F815A"/>
<path d="M294.599 273.643L288.941 279.3L283.107 285.132L277.273 290.965L271.439 296.798L265.605 302.631L259.771 308.463L253.937 314.296L248.103 320.129L242.269 325.961L236.435 331.794L230.601 337.627L224.767 343.46L218.934 349.292L213.1 355.125L207.266 360.958L201.432 366.79L195.598 372.623L189.764 378.456L183.93 384.288L178.096 390.121L172.262 395.954L172.165 396.051C172.379 396.188 172.594 396.344 172.808 396.481L173.628 395.661L179.462 389.829L185.296 383.996L191.13 378.163L196.964 372.33L202.798 366.498L214.446 354.852L220.28 349.019L226.114 343.186L235.538 333.764L237.762 331.54L243.596 325.708L249.43 319.875L255.264 314.042L261.098 308.21L266.932 302.377L272.766 296.544L278.6 290.711L284.434 284.879L290.268 279.046L294.97 274.345C294.833 274.13 294.697 273.916 294.541 273.701L294.599 273.643Z" fill="#2F815A"/>
<path d="M297.214 277.934C297.077 277.7 296.96 277.485 296.823 277.251L294.775 279.3L288.941 285.132L283.107 290.965L277.273 296.798L271.439 302.631L265.605 308.463L259.771 314.296L253.937 320.129L248.103 325.961L242.269 331.794L236.435 337.627L230.601 343.46L224.767 349.292L218.934 355.125L213.1 360.958L207.266 366.79L201.432 372.623L195.598 378.456L189.764 384.288L183.93 390.121L178.096 395.954L175.774 398.275C176.008 398.412 176.223 398.548 176.457 398.665L179.481 395.642L185.315 389.809L191.149 383.976L196.983 378.144L202.817 372.311L208.651 366.478L214.485 360.646L220.319 354.813L226.153 348.98L231.987 343.147L237.821 337.315L243.655 331.482L249.489 325.649L255.322 319.817L261.156 313.984L266.99 308.151L272.824 302.318L278.658 296.486L284.492 290.653L290.326 284.82L296.16 278.988L297.214 277.934Z" fill="#2F815A"/>
<path d="M287.575 264.259C287.419 264.064 287.243 263.869 287.087 263.674L283.107 267.654L277.273 273.486L271.439 279.319L265.605 285.152L259.771 290.985L253.937 296.817L248.103 302.65L242.269 308.483L236.435 314.315L230.601 320.148L224.767 325.981L218.934 331.814L213.1 337.646L207.266 343.479L201.432 349.312L195.598 355.144L189.764 360.977L183.93 366.81L178.096 372.643L166.448 384.288L162.214 388.522C162.409 388.697 162.604 388.853 162.799 389.009L167.833 383.976L173.667 378.144L179.501 372.311L185.335 366.478L191.169 360.646L197.003 354.813L202.837 348.98L208.671 343.147L214.504 337.315L220.338 331.482L226.172 325.649L232.006 319.817L237.84 313.984L243.674 308.151L249.508 302.318L255.342 296.486L261.176 290.653L267.01 284.82L272.844 278.988L278.678 273.155L284.512 267.322L287.594 264.24L287.575 264.259Z" fill="#2F815A"/>
<path d="M284.824 261.197C284.648 261.021 284.473 260.826 284.297 260.651L283.107 261.841L277.273 267.673L271.439 273.506L265.605 279.339L259.771 285.171L253.937 291.004L248.103 296.837L242.269 302.67L236.435 308.502L230.601 314.335L224.767 320.168L218.934 326L213.1 331.833L207.266 337.666L201.432 343.499L195.598 349.331L189.764 355.164L183.93 360.997L178.096 366.829L172.262 372.662L166.428 378.495L160.594 384.328L159.15 385.771C159.326 385.947 159.521 386.122 159.697 386.298L161.98 384.015L167.813 378.183L173.647 372.35L179.481 366.517L185.315 360.685L191.149 354.852L196.983 349.019L202.817 343.186L214.036 331.97L214.465 331.54L220.299 325.708L226.133 319.875L231.967 314.042L237.801 308.21L243.635 302.377L249.469 296.544L255.303 290.711L261.137 284.879L266.971 279.046L272.805 273.213L278.639 267.381L284.473 261.548L284.804 261.216L284.824 261.197Z" fill="#2F815A"/>
<path d="M290.209 267.478C290.053 267.283 289.897 267.069 289.741 266.873L288.96 267.654L283.126 273.486L277.292 279.319L271.458 285.152L265.624 290.985L259.791 296.817L253.957 302.65L248.123 308.483L242.289 314.315L236.455 320.148L230.621 325.981L224.787 331.814L218.953 337.646L213.119 343.479L207.285 349.312L195.91 360.685L195.617 360.977L189.783 366.81L183.949 372.643L178.116 378.475L172.282 384.308L166.448 390.141L165.394 391.194C165.589 391.35 165.804 391.506 165.999 391.662L167.833 389.829L173.667 383.996L179.501 378.163L185.335 372.33L191.169 366.498L197.003 360.665L202.837 354.832L208.67 349L214.504 343.167L220.338 337.334L226.172 331.501L232.006 325.669L237.84 319.836L243.674 314.003L249.508 308.171L255.342 302.338L261.176 296.505L267.01 290.672L272.844 284.84L278.678 279.007L284.512 273.174L290.209 267.478Z" fill="#2F815A"/>
<path d="M281.936 258.271C281.76 258.095 281.585 257.92 281.39 257.744L277.292 261.841L271.458 267.673L265.624 273.506L259.791 279.339L253.957 285.171L248.123 291.004L242.289 296.837L236.455 302.67L230.621 308.502L224.787 314.335L218.953 320.168L213.119 326L207.285 331.833L198.544 340.572L195.637 343.479L189.803 349.312L183.969 355.144L178.135 360.977L172.301 366.81L166.467 372.643L160.633 378.475L156.282 382.825C156.458 383.001 156.633 383.196 156.809 383.372L162.019 378.163L167.852 372.33L173.686 366.498L185.335 354.852L191.169 349.019L197.003 343.186L202.837 337.354L208.67 331.521L214.504 325.688L220.338 319.856L226.172 314.023L232.006 308.19L237.84 302.357L243.674 296.525L249.508 290.692L255.342 284.859L261.176 279.027L267.01 273.194L272.844 267.361L278.678 261.528L281.936 258.271Z" fill="#2F815A"/>
<path d="M230.679 238.549L224.845 244.381L219.012 250.214L213.178 256.047L207.344 261.88L201.51 267.712L195.676 273.545L189.842 279.378L184.008 285.21L178.174 291.043L172.34 296.876L166.506 302.709L160.672 308.541L154.838 314.374L149.004 320.207L143.17 326.039L137.337 331.872L133.044 336.164C133.103 336.476 133.142 336.788 133.2 337.081L138.722 331.56L144.556 325.727L150.39 319.895L156.224 314.062L162.058 308.229L167.891 302.396L173.725 296.564L179.559 290.731L185.393 284.898L191.227 279.066L197.061 273.233L202.895 267.4L208.729 261.567L214.563 255.735L220.397 249.902L226.231 244.069L232.065 238.237L235.635 234.667C235.323 234.608 235.03 234.569 234.718 234.511L230.679 238.549Z" fill="#2F815A"/>
<path d="M224.865 238.549L219.031 244.381L213.197 250.214L207.363 256.047L201.529 261.88L195.695 267.712L189.861 273.545L184.027 279.378L178.194 285.21L172.36 291.043L166.526 296.876L160.692 302.709L154.858 308.541L149.024 314.374L143.19 320.207L137.356 326.039L132.381 331.014C132.42 331.345 132.459 331.658 132.498 331.97L132.927 331.54L138.761 325.708L144.595 319.875L150.429 314.042L156.263 308.21L162.097 302.377L167.931 296.544L173.764 290.711L179.598 284.879L185.432 279.046L191.266 273.213L197.1 267.381L202.934 261.548L208.768 255.715L214.602 249.882L220.436 244.05L226.27 238.217L230.582 233.906C230.27 233.867 229.938 233.828 229.626 233.789L224.885 238.529L224.865 238.549Z" fill="#2F815A"/>
<path d="M219.031 238.548L213.197 244.381L207.363 250.214L201.529 256.047L195.695 261.879L189.861 267.712L184.027 273.545L178.193 279.377L172.359 285.21L166.525 291.043L160.692 296.876L154.858 302.708L149.024 308.541L143.19 314.374L137.356 320.206L132.107 325.434C132.107 325.786 132.127 326.117 132.146 326.468L133.024 325.591L138.858 319.758L144.692 313.925L150.526 308.092L156.36 302.26L162.194 296.427L168.028 290.594L173.862 284.762L179.696 278.929L185.53 273.096L191.364 267.263L197.198 261.431L203.031 255.598L208.865 249.765L214.699 243.933L220.533 238.1L225.294 233.34C224.943 233.34 224.611 233.301 224.26 233.301L219.148 238.412L219.031 238.548Z" fill="#2F815A"/>
<path d="M213.197 238.549L207.363 244.381L201.529 250.214L195.695 256.047L189.861 261.88L184.028 267.712L178.194 273.545L172.36 279.378L166.526 285.21L160.692 291.043L154.858 296.876L149.024 302.709L143.19 308.541L137.356 314.374L132.029 319.68C132.029 320.051 132.029 320.402 132.029 320.772L133.025 319.778L138.858 313.945L144.692 308.112L150.526 302.279L156.36 296.447L162.194 290.614L168.028 284.781L173.862 278.949L179.696 273.116L185.53 267.283L191.364 261.45L197.198 255.618L203.032 249.785L208.866 243.952L214.7 238.12L219.577 233.243C219.207 233.243 218.855 233.243 218.485 233.243L213.314 238.412L213.197 238.549Z" fill="#2F815A"/>
<path d="M201.549 238.549L195.715 244.381L189.881 250.214L184.047 256.047L178.213 261.88L172.379 267.712L166.545 273.545L160.711 279.378L154.877 285.21L149.043 291.043L143.209 296.876L137.376 302.709L133.181 306.903C133.103 307.332 133.024 307.761 132.966 308.19L138.761 302.396L144.595 296.564L150.429 290.731L156.263 284.898L162.097 279.066L167.931 273.233L173.764 267.4L179.598 261.567L185.432 255.735L191.266 249.902L197.1 244.069L202.934 238.237L206.778 234.394C206.349 234.452 205.919 234.53 205.49 234.608L201.549 238.549Z" fill="#2F815A"/>
<path d="M202.934 407.132L208.768 401.299L214.602 395.466L220.436 389.634L226.27 383.801L232.104 377.968L237.938 372.135L243.772 366.303L249.606 360.47L255.44 354.637L261.273 348.805L267.107 342.972L272.941 337.139L278.775 331.306L284.609 325.474L290.443 319.641L296.277 313.808L302.111 307.976L306.989 303.099C306.93 302.806 306.872 302.513 306.794 302.221L306.54 302.474L300.706 308.307L294.872 314.14L289.038 319.973L283.204 325.805L277.37 331.638L271.536 337.471L265.703 343.303L259.869 349.136L248.493 360.509L248.201 360.802L242.367 366.634L236.533 372.467L230.699 378.3L224.865 384.132L219.031 389.965L213.197 395.798L207.363 401.631L201.529 407.463L201.003 407.99C201.295 408.049 201.588 408.127 201.881 408.185L202.915 407.151L202.934 407.132Z" fill="#2F815A"/>
<path d="M202.934 401.299L208.768 395.466L214.602 389.634L220.436 383.801L226.27 377.968L232.104 372.135L237.938 366.303L243.772 360.47L249.606 354.637L255.44 348.805L261.273 342.972L267.107 337.139L272.941 331.306L278.775 325.474L284.609 319.641L290.443 313.808L296.277 307.976L302.111 302.143L305.857 298.397C305.779 298.124 305.701 297.832 305.623 297.559L300.706 302.474L294.872 308.307L289.038 314.14L283.204 319.973L277.37 325.805L271.537 331.638L265.703 337.471L259.869 343.303L254.035 349.136L248.201 354.969L242.367 360.802L236.533 366.634L230.699 372.467L219.051 384.113L213.217 389.946L207.383 395.778L196.378 406.781C196.651 406.859 196.944 406.937 197.217 407.015L202.934 401.299Z" fill="#2F815A"/>
<path d="M197.12 401.299L202.954 395.466L208.788 389.634L214.622 383.801L220.455 377.968L226.289 372.135L232.123 366.303L237.957 360.47L243.791 354.637L249.625 348.805L255.459 342.972L264.883 333.55L267.107 331.326L272.941 325.493L278.775 319.66L284.609 313.828L290.443 307.995L296.277 302.162L302.111 296.33L304.511 293.93C304.413 293.657 304.335 293.384 304.238 293.13L300.706 296.661L294.872 302.494L289.038 308.327L283.204 314.159L277.37 319.992L271.536 325.825L265.703 331.658L259.869 337.49L254.035 343.323L248.201 349.156L242.367 354.988L236.533 360.821L230.699 366.654L224.865 372.487L219.031 378.319L213.197 384.152L207.363 389.985L201.529 395.817L195.695 401.65L191.91 405.435C192.183 405.532 192.456 405.61 192.71 405.708L197.081 401.338L197.12 401.299Z" fill="#2F815A"/>
<path d="M191.247 238.276C190.681 238.471 190.135 238.666 189.569 238.88L184.067 244.381L178.233 250.214L172.399 256.047L166.565 261.88L160.731 267.712L154.897 273.545L149.063 279.378L143.229 285.21L137.493 290.946C137.278 291.511 137.083 292.058 136.888 292.623L138.8 290.711L144.634 284.879L150.468 279.046L156.302 273.213L162.136 267.381L167.97 261.548L173.803 255.715L179.637 249.882L185.471 244.05L191.266 238.256L191.247 238.276Z" fill="#2F815A"/>
<path d="M185.471 395.466L191.305 389.634L197.139 383.801L202.973 377.968L208.807 372.135L214.641 366.303L220.475 360.47L226.309 354.637L232.143 348.805L237.977 342.972L243.811 337.139L249.645 331.306L255.479 325.474L261.312 319.641L267.146 313.808L272.98 307.976L278.814 302.143L284.648 296.31L290.482 290.477L296.316 284.645L299.418 281.543C299.301 281.309 299.184 281.075 299.048 280.841L294.931 284.957L289.097 290.79L283.263 296.622L277.429 302.455L271.595 308.288L265.761 314.12L259.927 319.953L254.093 325.786L248.259 331.619L242.425 337.451L236.591 343.284L230.757 349.117L219.109 360.763L213.275 366.595L207.441 372.428L196.066 383.801L195.773 384.093L189.939 389.926L184.106 395.759L179.715 400.148C179.95 400.265 180.184 400.402 180.418 400.519L185.491 395.447L185.471 395.466Z" fill="#2F815A"/>
<path d="M178.974 243.64L178.233 244.381L172.399 250.214L166.565 256.047L160.731 261.88L154.897 267.712L149.063 273.545L143.229 279.378L142.253 280.353C141.863 281.075 141.492 281.816 141.122 282.557L144.614 279.066L150.448 273.233L156.282 267.4L162.116 261.567L167.95 255.735L173.784 249.902L179.618 244.069L181.179 242.509C180.437 242.879 179.696 243.25 178.974 243.64Z" fill="#2F815A"/>
<path d="M173.803 389.653L185.179 378.28L185.471 377.988L191.305 372.155L197.139 366.322L202.973 360.489L208.807 354.657L214.641 348.824L220.475 342.991L226.309 337.159L232.143 331.326L237.977 325.493L243.811 319.66L249.645 313.828L255.479 307.995L261.312 302.162L267.146 296.33L272.98 290.497L278.814 284.664L284.648 278.831L290.482 272.999L292.843 270.638C292.687 270.424 292.55 270.229 292.394 270.014L289.097 273.311L283.263 279.144L277.429 284.976L271.595 290.809L265.761 296.642L259.927 302.474L254.093 308.307L248.259 314.14L242.425 319.973L236.591 325.805L230.757 331.638L219.109 343.284L213.275 349.117L207.441 354.949L201.607 360.782L195.773 366.615L189.939 372.448L184.106 378.28L178.272 384.113L172.438 389.946L168.887 393.496C169.101 393.652 169.296 393.789 169.511 393.945L173.823 389.634L173.803 389.653Z" fill="#2F815A"/>
<path d="M153.629 379.626C153.804 379.821 153.96 379.997 154.136 380.192L156.321 378.007L162.155 372.174L167.989 366.342L173.823 360.509L179.657 354.676L185.491 348.844L191.325 343.011L197.159 337.178L202.993 331.345L208.827 325.513L214.66 319.68L220.494 313.847L226.328 308.015L232.162 302.182L237.996 296.349L243.83 290.516L249.664 284.684L255.498 278.851L261.332 273.018L267.166 267.186L273 261.353L278.834 255.52L279.068 255.286C278.873 255.11 278.697 254.954 278.502 254.779L277.448 255.832L271.614 261.665L265.781 267.498L259.947 273.33L254.113 279.163L248.279 284.996L242.445 290.829L236.611 296.661L230.777 302.494L224.943 308.327L219.109 314.159L213.275 319.992L207.441 325.825L201.607 331.658L195.773 337.49L189.939 343.323L184.106 349.156L178.272 354.988L172.438 360.821L166.604 366.654L160.77 372.487L154.936 378.319L153.629 379.626Z" fill="#2F815A"/>
<path d="M148.497 373.111C148.653 373.325 148.79 373.52 148.946 373.735L150.507 372.174L156.341 366.342L162.175 360.509L168.009 354.676L173.843 348.844L179.676 343.011L185.51 337.178L191.344 331.345L197.178 325.513L203.012 319.68L208.846 313.847L214.68 308.015L220.514 302.182L226.348 296.349L232.182 290.516L238.016 284.684L243.85 278.851L249.684 273.018L255.518 267.186L261.351 261.353L267.185 255.52L272.61 250.097C272.395 249.941 272.2 249.785 271.985 249.648L271.615 250.019L265.781 255.852L259.947 261.684L254.113 267.517L248.279 273.35L242.445 279.183L236.611 285.015L230.777 290.848L224.943 296.681L219.109 302.513L213.275 308.346L207.441 314.179L201.607 320.012L195.773 325.844L189.939 331.677L184.106 337.51L178.272 343.342L172.438 349.175L166.604 355.008L160.77 360.841L154.936 366.673L149.102 372.506L148.478 373.13L148.497 373.111Z" fill="#2F815A"/>
<path d="M150.507 366.361L162.155 354.715L167.989 348.883L173.823 343.05L183.247 333.628L185.471 331.404L191.305 325.571L197.139 319.738L202.973 313.906L208.807 308.073L214.641 302.24L220.475 296.408L226.309 290.575L232.143 284.742L237.977 278.91L243.811 273.077L249.645 267.244L255.479 261.411L261.312 255.579L267.146 249.746L269.137 247.756C268.922 247.62 268.707 247.464 268.493 247.327L265.761 250.058L259.927 255.891L254.093 261.723L248.259 267.556L242.425 273.389L236.591 279.222L230.757 285.054L224.924 290.887L219.09 296.72L213.256 302.552L207.422 308.385L201.588 314.218L195.754 320.051L189.92 325.883L184.086 331.716L178.252 337.549L172.418 343.381L166.584 349.214L160.75 355.047L154.916 360.88L149.082 366.712L146.097 369.697C146.234 369.912 146.39 370.126 146.526 370.341L150.468 366.4L150.507 366.361Z" fill="#2F815A"/>
<path d="M151.482 377.032L156.341 372.174L162.175 366.342L168.009 360.509L173.843 354.676L179.676 348.844L185.51 343.011L191.344 337.178L197.178 331.345L203.012 325.513L208.846 319.68L214.68 313.847L220.514 308.015L226.348 302.182L232.182 296.349L238.016 290.516L243.85 284.684L249.684 278.851L255.518 273.018L261.351 267.186L267.185 261.353L273.019 255.52L275.927 252.614C275.731 252.457 275.536 252.301 275.341 252.126L271.654 255.813L265.82 261.645L259.986 267.478L254.152 273.311L248.318 279.144L242.484 284.976L236.65 290.809L230.816 296.642L224.982 302.474L219.148 308.307L213.314 314.14L207.48 319.973L201.646 325.805L195.812 331.638L189.978 337.471L184.145 343.303L178.311 349.136L166.662 360.782L160.828 366.615L154.994 372.448L151.053 376.388C151.209 376.583 151.365 376.778 151.541 376.993L151.482 377.032Z" fill="#2F815A"/>
<path d="M143.288 360.841L141.863 362.265C141.98 362.499 142.117 362.733 142.234 362.967L144.692 360.509L150.526 354.676L156.36 348.844L162.194 343.011L168.028 337.178L173.862 331.345L179.696 325.513L185.53 319.68L191.364 313.847L197.198 308.015L203.032 302.182L208.866 296.349L214.7 290.516L220.533 284.684L226.367 278.851L232.201 273.018L238.035 267.186L243.869 261.353L249.703 255.52L255.537 249.687L261.371 243.855L261.878 243.348C261.644 243.23 261.41 243.094 261.176 242.977L259.986 244.167L254.152 250L248.318 255.832L242.484 261.665L236.65 267.498L230.816 273.33L224.982 279.163L219.148 284.996L213.314 290.829L207.48 296.661L201.646 302.494L195.812 308.327L189.979 314.159L184.145 319.992L178.311 325.825L172.477 331.658L166.643 337.49L160.809 343.323L154.975 349.156L143.6 360.528L143.307 360.821L143.288 360.841Z" fill="#2F815A"/>
<path d="M144.673 354.715L150.507 348.883L156.341 343.05L162.175 337.217L168.009 331.384L173.842 325.552L179.676 319.719L185.51 313.886L191.344 308.054L197.178 302.221L203.012 296.388L208.846 290.555L214.68 284.723L220.514 278.89L226.348 273.057L232.182 267.225L238.016 261.392L243.85 255.559L249.684 249.726L255.518 243.894L257.956 241.455C257.722 241.338 257.469 241.221 257.215 241.104L254.132 244.186L248.298 250.019L242.464 255.852L236.63 261.684L230.796 267.517L224.963 273.35L219.129 279.183L213.295 285.015L207.461 290.848L201.627 296.681L195.793 302.513L189.959 308.346L184.125 314.179L178.291 320.012L172.457 325.844L166.623 331.677L160.789 337.51L154.955 343.342L149.121 349.175L143.288 355.008L139.951 358.344C140.068 358.597 140.185 358.831 140.302 359.085L144.692 354.696L144.673 354.715Z" fill="#2F815A"/>
<path d="M144.322 366.712L144.673 366.361L150.507 360.528L156.341 354.696L162.175 348.863L168.009 343.03L173.843 337.198L179.676 331.365L185.51 325.532L191.344 319.699L197.178 313.867L203.012 308.034L208.846 302.201L214.68 296.369L220.514 290.536L226.348 284.703L232.182 278.87L238.016 273.038L243.85 267.205L249.684 261.372L255.518 255.54L261.351 249.707L265.585 245.474C265.351 245.337 265.137 245.201 264.903 245.084L259.966 250.019L254.132 255.852L248.298 261.684L242.464 267.517L236.63 273.35L230.797 279.183L224.963 285.015L219.129 290.848L213.295 296.681L207.461 302.513L201.627 308.346L195.793 314.179L189.959 320.012L184.125 325.844L178.291 331.677L166.643 343.323L160.809 349.156L154.975 354.988L149.141 360.821L143.951 366.01C144.088 366.244 144.224 366.459 144.341 366.693L144.322 366.712Z" fill="#2F815A"/>
<path d="M138.858 296.466L144.692 290.633L150.526 284.801L156.36 278.968L162.194 273.135L168.028 267.303L173.862 261.47L179.696 255.637L185.53 249.804L191.364 243.972L197.198 238.139L199.598 235.74C199.129 235.857 198.642 235.974 198.173 236.091L195.812 238.451L189.979 244.284L184.145 250.117L178.311 255.949L172.477 261.782L166.643 267.615L160.809 273.447L154.975 279.28L149.141 285.113L143.307 290.946L137.473 296.778L134.878 299.373C134.761 299.841 134.644 300.329 134.527 300.797L138.878 296.447L138.858 296.466Z" fill="#2F815A"/>
<path d="M138.858 337.237L144.692 331.404L150.526 325.571L156.36 319.738L162.194 313.906L168.028 308.073L173.862 302.24L179.696 296.408L185.53 290.575L191.364 284.742L197.198 278.91L203.032 273.077L208.866 267.244L214.7 261.411L220.533 255.579L226.367 249.746L232.201 243.913L238.035 238.081L240.63 235.486C240.338 235.427 240.045 235.349 239.752 235.291L236.65 238.393L230.816 244.225L224.982 250.058L219.148 255.891L213.314 261.723L207.48 267.556L201.646 273.389L195.812 279.222L189.978 285.054L184.145 290.887L178.311 296.72L172.477 302.552L166.643 308.385L160.809 314.218L154.975 320.051L149.141 325.883L143.307 331.716L137.473 337.549L134.117 340.904C134.176 341.197 134.234 341.489 134.312 341.782L138.858 337.237Z" fill="#2F815A"/>
<path d="M136.927 350.814L138.858 348.883L144.692 343.05L150.526 337.217L156.36 331.384L162.194 325.552L168.028 319.719L173.862 313.886L179.696 308.054L185.53 302.221L191.364 296.388L197.198 290.555L203.032 284.723L208.866 278.89L214.7 273.057L220.533 267.225L226.367 261.392L232.201 255.559L238.035 249.726L243.869 243.894L249.664 238.1C249.391 238.002 249.137 237.905 248.864 237.827L248.298 238.393L242.464 244.225L236.63 250.058L230.796 255.891L224.963 261.723L219.129 267.556L213.295 273.389L207.461 279.222L201.627 285.054L195.793 290.887L189.959 296.72L184.125 302.552L178.291 308.385L172.457 314.218L166.623 320.051L160.789 325.883L154.955 331.716L146.214 340.455L143.307 343.362L137.473 349.195L136.654 350.014C136.751 350.287 136.849 350.541 136.927 350.814Z" fill="#2F815A"/>
<path d="M138.858 343.05L144.692 337.217L150.526 331.384L156.36 325.552L162.194 319.719L168.028 313.886L173.862 308.054L179.696 302.221L185.53 296.388L191.364 290.555L197.198 284.723L203.032 278.89L208.866 273.057L214.7 267.225L220.533 261.392L226.367 255.559L232.201 249.726L238.035 243.894L243.869 238.061L245.254 236.676C244.981 236.598 244.689 236.52 244.416 236.442L242.464 238.393L236.63 244.225L230.796 250.058L224.963 255.891L219.129 261.723L213.295 267.556L207.461 273.389L201.627 279.222L195.793 285.054L189.959 290.887L184.125 296.72L178.291 302.552L172.457 308.385L166.623 314.218L160.789 320.051L154.955 325.883L149.121 331.716L143.288 337.549L137.454 343.381L135.268 345.566C135.346 345.839 135.424 346.132 135.502 346.405L138.839 343.069L138.858 343.05Z" fill="#2F815A"/>
<path d="M138.527 355.047L138.858 354.715L144.692 348.883L150.526 343.05L161.745 331.833L162.175 331.404L168.009 325.571L173.842 319.739L179.676 313.906L185.51 308.073L191.344 302.24L197.178 296.408L203.012 290.575L208.846 284.742L214.68 278.91L220.514 273.077L226.348 267.244L232.182 261.411L238.016 255.579L243.85 249.746L249.684 243.913L253.898 239.7C253.644 239.602 253.391 239.485 253.137 239.388L248.298 244.225L242.464 250.058L236.63 255.891L230.796 261.723L224.963 267.556L219.129 273.389L213.295 279.222L207.461 285.054L201.627 290.887L195.793 296.72L189.959 302.552L184.125 308.385L178.291 314.218L172.457 320.051L166.623 325.883L160.789 331.716L154.955 337.549L149.121 343.381L143.288 349.214L138.215 354.286C138.312 354.54 138.429 354.793 138.527 355.047Z" fill="#2F815A"/>
<path d="M133.024 313.945L138.858 308.112L144.692 302.279L150.526 296.447L156.36 290.614L162.194 284.781L168.028 278.949L173.862 273.116L179.696 267.283L185.53 261.45L191.364 255.618L197.198 249.785L203.032 243.952L208.866 238.12L213.47 233.516C213.08 233.555 212.69 233.594 212.3 233.613L207.48 238.432L201.646 244.264L195.812 250.097L189.978 255.93L184.145 261.763L178.311 267.595L172.477 273.428L166.643 279.261L160.809 285.093L154.975 290.926L149.141 296.759L143.307 302.592L137.473 308.424L132.4 313.496C132.361 313.886 132.322 314.276 132.303 314.667L133.044 313.925L133.024 313.945Z" fill="#2F815A"/>
<path d="M207.04 563.757C193.564 561.021 181.852 550.772 177.353 537.746C172.855 524.741 175.748 509.436 184.666 498.968C187.638 495.479 191.542 492.366 196.1 491.93C200.678 491.494 205.771 494.706 205.989 499.285C206.069 501.07 205.454 502.834 204.562 504.38C197.884 516.157 178.542 514.115 170.239 503.429C161.955 492.743 162.173 477.755 164.749 464.472C172.597 423.989 199.608 387.649 236.131 368.497" stroke="black" stroke-linecap="round" stroke-linejoin="round"/>
<path d="M204.741 362.609C210.627 363.581 236.112 368.497 236.112 368.497V402.835" stroke="black" stroke-linecap="round" stroke-linejoin="round"/>
<defs>
<clipPath id="clip0_196_2215">
<rect width="236.12" height="296.48" fill="white" transform="translate(1084.49 532.531)"/>
</clipPath>
</defs>
</svg>
